<svg width="75" height="72" viewBox="0 0 75 72" fill="none" xmlns="http://www.w3.org/2000/svg">
<g id="Group 39776">
<path id="Vector" d="M30.202 35.8053C26.0805 35.8053 21.9589 35.8079 17.8387 35.8015C17.3203 35.8015 16.8122 35.8312 16.3353 36.0511C15.4695 36.4495 14.9562 37.1221 14.8072 38.0612C14.7242 38.5799 14.7774 39.1037 14.7916 39.625C14.802 40.0493 14.8085 40.4723 14.7851 40.8965C14.7709 41.1746 14.7748 41.4553 14.7722 41.7347C14.7709 41.9417 14.7592 42.1473 14.7152 42.3517C14.5544 43.0929 14.0373 43.3865 13.3115 43.2998C12.6687 43.2235 12.2837 42.7617 12.2708 42.0943C12.2565 41.401 12.2487 40.709 12.2474 40.0157C12.2448 38.122 12.2371 36.2283 12.2474 34.3346C12.2928 25.9489 12.2539 17.5632 12.2669 9.17625C12.2733 5.46005 14.7255 2.00514 18.2262 0.925073C21.2215 0.000227392 23.964 0.59394 26.3539 2.61437C28.0363 4.03592 28.9681 5.89725 29.3051 8.06385C29.3673 8.46612 29.3971 8.86711 29.2999 9.2655C29.2027 9.65743 29.007 9.99244 28.6299 10.1722C27.9883 10.4775 27.3441 10.2628 27.0059 9.53584C26.8763 9.25774 26.8542 8.95765 26.8309 8.65885C26.5782 5.42771 24.1662 3.52111 21.8578 3.09814C20.7666 2.89765 19.6999 3.02829 18.6695 3.43703C17.5678 3.87294 16.6204 4.52227 15.905 5.47687C15.2815 6.30858 14.9329 7.25024 14.8357 8.28245C14.7657 9.01456 14.7748 9.74927 14.7735 10.4827C14.7696 12.6247 14.7709 14.7667 14.767 16.9087C14.767 17.5814 14.9355 18.1971 15.358 18.7313C15.8078 19.2991 16.4156 19.5785 17.1181 19.6755C17.5873 19.7402 18.0603 19.7078 18.5308 19.7078C24.5291 19.7078 30.526 19.7078 36.5243 19.7078C38.3025 19.7078 40.0807 19.7066 41.8589 19.7195C42.2789 19.7234 42.6975 19.7402 43.1161 19.7066C43.7447 19.6548 44.3254 19.4711 44.8101 19.0482C45.313 18.6097 45.5787 18.0444 45.6759 17.3938C45.7472 16.9152 45.7044 16.4327 45.7044 15.9528C45.7044 14.7939 45.6707 13.6362 45.6901 12.4772C45.7096 11.2924 45.6746 10.1076 45.7161 8.92402C45.7796 7.10537 46.3641 5.45746 47.4541 3.99711C48.653 2.39189 50.2109 1.2963 52.1576 0.778909C53.0143 0.551254 53.8878 0.480112 54.7757 0.54608C56.572 0.67931 58.1766 1.30407 59.5724 2.43328C61.3338 3.85742 62.3875 5.70193 62.7426 7.93838C62.8113 8.37299 62.871 8.8076 62.7763 9.24739C62.6506 9.83076 62.2514 10.1386 61.711 10.3016C61.6202 10.3287 61.5243 10.3287 61.4336 10.3042C60.9191 10.1671 60.5458 9.87861 60.3851 9.34828C60.2814 9.0068 60.2827 8.65368 60.2399 8.30573C59.9963 6.32928 59.0398 4.81848 57.2849 3.84448C56.1923 3.23783 55.0167 2.93904 53.7608 3.02441C52.6293 3.10202 51.6197 3.51852 50.7099 4.18726C49.3347 5.19618 48.5337 6.544 48.303 8.23071C48.246 8.65109 48.2149 9.07277 48.2149 9.49704C48.2175 12.3531 48.2019 15.2091 48.2214 18.0651C48.2603 23.7448 48.2382 29.4258 48.233 35.1056C48.2305 37.0445 48.2279 38.9847 48.2188 40.925C48.2162 41.3117 48.2551 41.6985 48.2188 42.0865C48.1916 42.3814 48.1294 42.6634 47.9298 42.8898C47.5513 43.3218 47.0614 43.3917 46.5378 43.2468C46.0647 43.1161 45.7977 42.7734 45.742 42.2948C45.6707 41.6881 45.6824 41.0776 45.685 40.4671C45.6888 39.7738 45.7329 39.0805 45.7031 38.3884C45.6603 37.4287 45.2456 36.6577 44.3889 36.1675C43.9378 35.9101 43.444 35.8015 42.9282 35.8015C38.6874 35.8002 34.4467 35.8015 30.2072 35.8015L30.202 35.8053ZM30.3329 33.3037C34.47 33.3037 38.6058 33.3037 42.7429 33.3037C42.9191 33.3037 43.0941 33.2973 43.2704 33.2792C44.6883 33.1343 45.694 32.0452 45.7057 30.6249C45.7096 30.1127 45.6992 29.6018 45.6888 29.0895C45.6694 28.2358 45.6798 27.3821 45.6798 26.5284C45.6798 26.3422 45.6824 26.1559 45.6901 25.9696C45.7096 25.4639 45.7407 24.9581 45.6798 24.4524C45.5502 23.3749 44.7894 22.4901 43.7408 22.2004C43.2665 22.0698 42.7843 22.0555 42.2944 22.0698C41.6218 22.0905 40.9465 22.0814 40.2725 22.0814C36.9287 22.0814 33.5861 22.0788 30.2422 22.0788C27.3753 22.0788 24.5083 22.0827 21.6427 22.0827C20.6836 22.0827 19.7245 22.0723 18.7654 22.0749C18.2275 22.0762 17.6897 22.0245 17.1531 22.1086C15.5783 22.3582 14.7333 23.5314 14.7553 25.0616C14.7644 25.645 14.7774 26.2296 14.7929 26.813C14.815 27.6499 14.7929 28.4881 14.78 29.3262C14.7722 29.8837 14.719 30.4451 14.8085 31C14.9666 31.9753 15.4643 32.6971 16.4143 33.0593C16.8433 33.2222 17.2944 33.2998 17.7532 33.2998C21.9473 33.3024 26.1401 33.3011 30.3342 33.3011L30.3329 33.3037Z" fill="white"/>
<path id="Vector_2" d="M74.5007 64.8321C74.5007 65.0908 74.4035 65.3818 74.2091 65.6418C72.1017 68.5056 69.1181 70.2868 65.112 71.0952C64.123 71.2892 62.9877 71.4832 61.8523 71.5001L61.4466 71.4845C57.2953 71.3707 53.9877 70.3359 51.3282 68.3284C50.6957 67.8589 50.0956 67.6325 49.4631 67.6325C48.8799 67.6325 48.2798 67.8434 47.6797 68.2793C41.8098 72.5348 33.2479 72.5348 27.2807 68.2469C26.4862 67.6649 25.2057 67.2108 23.6971 68.3439C17.6975 72.7457 8.51997 72.5025 2.76279 67.7942C2.04994 67.1953 1.36821 66.4671 0.752569 65.594C0.363745 65.0274 0.428549 64.3639 0.914579 63.9913C1.19064 63.7805 1.48226 63.6835 1.77388 63.7158C2.04994 63.7482 2.30916 63.8943 2.50357 64.153C5.40679 67.8912 9.50888 69.5094 15.0872 69.089C19.1893 68.7811 22.4489 67.0983 24.7521 64.0728C24.9789 63.7818 25.2225 63.668 25.5634 63.668C25.7423 63.668 26.0494 63.6848 26.3086 64.056C30.2656 69.7849 39.7192 70.4484 45.2314 67.1953C46.4147 66.4994 47.436 65.5772 48.539 64.2177C49.0419 63.5865 49.8364 63.5218 50.3548 64.1854C53.258 67.8912 57.3757 69.477 62.954 69.0722C67.0729 68.7643 70.3157 67.0815 72.6175 64.056C72.7471 63.862 72.9416 63.7482 73.1852 63.7158C73.4937 63.668 73.8177 63.7805 74.0938 64.0069C74.353 64.2177 74.4995 64.5087 74.4995 64.8321H74.5007Z" fill="white"/>
<path id="Vector_3" d="M74.5173 51.1722C74.5173 51.4477 74.4033 51.7387 74.1609 52.0466C71.583 55.4122 67.9345 57.2736 63.0042 57.7263C62.7282 57.7586 62.3886 57.7586 62.0153 57.7418H61.7069C61.5928 57.7263 61.5125 57.7263 61.3336 57.7263C57.5231 57.8401 54.2803 56.8195 51.3447 54.6995C50.0966 53.7928 48.7344 53.8251 47.485 54.7642C42.1827 58.8426 32.8432 58.8257 27.5241 54.7474C26.276 53.8083 24.9293 53.8251 23.5192 54.7797C17.7309 58.7934 9.39584 58.8257 3.72031 54.8444C2.6342 54.0993 1.71009 53.1939 0.915598 52.1423C0.169056 51.1385 0.591578 50.6043 0.980401 50.2809C1.17481 50.1348 1.38607 50.0546 1.62844 50.0546L1.7425 50.0714C2.06652 50.1206 2.31018 50.2822 2.52144 50.5733C4.25689 53.049 7.27286 54.7318 10.9861 55.2984C15.2502 55.9296 19.6284 54.9905 22.402 52.8382C23.1485 52.2393 23.8769 51.4955 24.5587 50.6535C24.8671 50.2809 25.256 50.0546 25.58 50.0391C25.8716 50.0546 26.1632 50.2176 26.4393 50.5565C28.4663 53.1784 31.2387 54.7642 34.6772 55.2661C38.7961 55.8805 42.2825 55.2984 45.3141 53.4862C46.7566 52.6442 47.7948 51.4955 48.5245 50.6056C48.8161 50.2331 49.1569 50.0391 49.481 50.0391C49.9022 50.0391 50.1783 50.3469 50.3247 50.5409C52.3997 53.2107 55.2057 54.7965 58.6922 55.2829C63.4436 55.9296 67.302 55.072 70.5124 52.6286C71.1449 52.1268 71.631 51.5602 72.0535 51.026L72.3943 50.6535C72.8972 50.0714 73.5621 49.9097 74.0157 50.2654C74.3566 50.5409 74.5186 50.8475 74.5186 51.1722H74.5173Z" fill="white"/>
</g>
</svg>
