<svg width="87" height="80" viewBox="0 0 87 80" fill="none" xmlns="http://www.w3.org/2000/svg">
<g clip-path="url(#clip0_457_97)">
<path d="M85.9908 77.8545C85.7428 77.8018 85.477 77.8018 85.1936 77.8194H82.7843C80.6585 77.8018 78.5503 77.7842 76.4245 77.8194C75.9639 77.8369 75.3439 77.7842 74.9541 77.3974C74.6707 77.0985 74.5467 76.6589 74.5644 76.0611C74.6353 74.76 74.6353 73.4589 74.5644 72.1578C74.5467 71.56 74.6707 71.1204 74.9541 70.8215C75.3439 70.4172 75.9816 70.382 76.4245 70.382C78.7098 70.4347 81.0305 70.4172 83.2981 70.382H83.9712C85.7428 70.382 85.7428 69.5556 85.7605 69.2567C85.7605 68.9402 85.7782 68.0963 84.0244 68.0084C83.6701 67.9908 83.298 68.0084 82.9437 68.0084H80.747C79.1704 67.9908 77.576 67.9908 75.9993 68.0084C75.6273 68.0084 75.1136 67.9732 74.7415 67.604C74.4758 67.3402 74.3518 66.9358 74.3695 66.4084C74.4227 65.1776 74.4227 63.9996 74.3695 62.8743C74.3518 62.3468 74.4758 61.96 74.7238 61.6963C75.0959 61.327 75.6273 61.3095 76.0171 61.3095C77.8417 61.3446 79.6841 61.327 81.3316 61.3095C82.8552 61.2919 82.8552 60.5534 82.8552 60.2194C82.8552 59.9556 82.8552 59.1117 81.3671 59.0941H80.6585C79.1527 59.0589 77.5937 59.0238 76.0702 59.0941C75.4856 59.1292 75.0604 59.0062 74.777 58.7249C74.3695 58.338 74.3518 57.7578 74.3695 57.1952V56.9314C74.3872 56.4216 74.3872 55.8413 74.7947 55.4369C75.0781 55.1732 75.5033 55.0677 76.1056 55.0853C77.7709 55.1556 79.4715 55.1205 81.1191 55.0853H81.2785C81.8808 55.0677 82.3414 54.927 82.5894 54.6633C82.7666 54.4875 82.8552 54.2238 82.8375 53.8721C82.8375 53.6084 82.8197 52.782 81.2962 52.7468C80.2333 52.7117 79.1527 52.7117 78.0898 52.7292H76.4776C74.6353 52.7117 74.4404 52.5183 74.3872 50.6721C74.3518 49.5996 73.9621 49.0545 73.2357 49.0545H73.2003C72.9523 49.0721 72.1728 49.0897 72.1374 50.6369C72.102 52.5358 71.8894 52.7292 69.9584 52.7292H47.4068C44.9089 52.7292 44.7141 52.5534 44.3775 50.1446C44.2889 49.4941 43.9523 49.1424 43.3323 49.0897C42.7477 49.0018 42.3402 49.3183 42.163 49.9512C42.0745 50.2853 41.9859 50.6545 42.039 50.9886C42.1099 51.5864 42.0213 52.026 41.7379 52.3249C41.3659 52.7292 40.7635 52.7644 40.2144 52.7468C38.7086 52.6765 37.2205 52.7117 35.5375 52.7292C35.0415 52.7468 33.89 52.8875 33.89 53.9249C33.89 54.9622 35.0592 55.0677 35.5552 55.0853C36.9725 55.1205 38.6554 55.138 40.3561 55.0853C40.8521 55.0677 41.419 55.0853 41.7733 55.5073C42.0213 55.7886 42.1099 56.193 42.0213 56.7556C41.9859 56.9314 42.0036 57.1073 42.0036 57.3007C42.0213 57.7754 42.039 58.3205 41.6493 58.7073C41.3659 58.9886 40.9407 59.1117 40.3384 59.0941C38.8857 59.0413 37.3799 59.0589 35.945 59.0765H35.3958C34.386 59.0941 33.8723 59.4809 33.8723 60.2018C33.8723 60.9227 34.386 61.2919 35.3958 61.3095H35.8387C37.309 61.327 38.8326 61.3446 40.3384 61.2919C40.8875 61.2919 41.3481 61.415 41.6316 61.6963C42.0036 62.0655 42.039 62.6106 42.0213 62.9798C41.9859 64.193 41.9505 65.2831 42.039 66.3732C42.0568 66.7424 42.0568 67.2523 41.7202 67.6216C41.3659 67.9908 40.8344 68.0259 40.3738 68.0084C38.6023 67.9908 36.8307 67.9908 35.0592 67.9908H33.0751C32.4905 68.0084 32.0476 68.0084 31.6579 68.1666C31.1087 68.3952 30.843 68.7468 30.8607 69.2391C30.8607 69.8194 31.1973 70.1886 31.7641 70.3117C32.1007 70.382 32.4728 70.382 32.8271 70.382H34.4746C36.4764 70.3996 38.4605 70.3996 40.4624 70.382C40.8875 70.382 41.3659 70.4172 41.7025 70.7688C42.039 71.1029 42.0568 71.6128 42.039 71.9644C41.9505 73.4941 41.9505 74.9007 42.039 76.2018C42.0568 76.571 42.0568 77.0809 41.7202 77.4325C41.3836 77.7842 40.9053 77.8194 40.3738 77.8194C34.4746 77.8018 26.6976 77.7842 18.956 77.8369H18.9205C18.2473 77.8369 17.8045 77.6963 17.5033 77.3974C17.0959 76.993 17.0604 76.3952 17.0604 75.8677C17.1136 71.982 17.1136 68.4831 17.0604 65.1776C17.0427 63.7007 17.7513 63.2435 18.9028 62.9798C25.3512 61.5205 29.5674 57.5644 31.4098 51.182C32.4196 47.6655 31.6579 44.3952 30.2052 40.5446C26.8039 31.5952 22.0916 23.2084 17.149 14.7161C16.777 14.0831 16.3164 13.7314 15.8735 13.7314C15.4306 13.7314 14.9523 14.0831 14.5626 14.7336C13.2339 17.0194 11.9584 19.3227 10.8955 21.2743C7.74216 27.0413 3.80935 34.2325 1.2052 41.6347C0.0891317 44.7996 -0.229744 47.4194 0.177708 49.8633C1.31149 56.4919 6.30721 61.5732 12.8973 62.804C14.4386 63.1029 14.97 63.7534 14.9346 65.3183C14.8637 67.6567 14.8814 70.0479 14.8814 72.3512C14.8991 73.3183 14.8991 74.2853 14.8991 75.2523C14.8991 77.415 14.6866 77.6084 12.4721 77.6084H6.14778C5.15572 77.6084 4.48253 77.7842 4.16366 78.1007C3.9865 78.2765 3.91564 78.5051 3.91564 78.8215C3.91564 79.4194 4.0928 79.9996 6.16549 79.9996H84.9101C85.2999 79.9996 85.6542 79.9996 86.0085 79.9468C86.664 79.8589 87.0006 79.5073 87.0006 78.9095C87.0006 78.5402 86.8943 78.0303 85.9908 77.8545ZM16.1392 43.9205C15.6255 43.9029 15.2712 43.4457 15.1649 43.2875C14.6689 42.6194 14.0665 41.8457 13.4111 41.1073C12.667 40.2633 12.1178 40.4743 11.7104 40.7556C11.4269 40.949 11.2675 41.2479 11.2498 41.5644C11.2321 41.8985 11.3738 42.215 11.6395 42.4435C14.474 44.9578 15.6255 48.4391 14.9523 52.5358V54.927C14.9523 56.5974 14.9346 57.9512 14.9523 59.3051C14.97 59.6743 14.9346 60.2194 14.5448 60.5183C14.3323 60.7117 14.0488 60.7644 13.7831 60.7644C13.5882 60.7644 13.3933 60.7292 13.2162 60.6941C7.12212 59.4633 2.42756 53.9249 2.28583 47.7886C2.2504 45.538 2.97673 43.4106 3.72077 41.4413C6.69695 33.5468 10.6652 26.3732 15.1472 18.4963C15.3243 18.1622 15.59 17.793 16.0152 17.793C16.4935 17.793 16.7593 18.2853 16.901 18.549L17.0604 18.8303C21.3475 26.4963 25.7764 34.4259 28.788 42.9007C31.4276 50.2853 27.5302 56.4567 22.8002 59.0941C21.4893 59.815 20.0897 60.3248 18.6194 60.5886C18.3005 60.6589 17.8399 60.6941 17.5033 60.4303C17.1667 60.149 17.1313 59.6743 17.1313 59.3578C17.1313 55.4194 17.1313 51.4985 17.1313 47.56C17.1313 46.7688 17.5387 46.2238 17.893 45.8545C18.9205 44.7468 19.9126 43.6567 20.8515 42.5666C21.2058 42.1446 21.383 41.7402 21.3475 41.3886C21.3298 41.1424 21.1881 40.9139 20.9401 40.7205C20.444 40.3161 19.948 40.2281 19.1685 41.0721C18.4776 41.8281 17.7867 42.5842 17.1313 43.3754C16.8124 43.7446 16.4935 43.9205 16.1747 43.9205H16.1392ZM46.2376 55.0853H46.273C54.2449 55.138 62.3231 55.138 70.295 55.0853H70.3127C72.1197 55.0853 72.1374 56.2457 72.1728 57.1776C72.1728 57.7051 72.1374 58.3029 71.7477 58.6897C71.4465 58.9886 71.0036 59.1292 70.3481 59.1292H70.2773C67.372 59.0765 64.4312 59.0941 61.5791 59.0941H54.9181C52.0836 59.0765 49.1429 59.0765 46.2553 59.1292C45.5998 59.1292 45.1215 59.0062 44.8026 58.7073C44.4129 58.3029 44.3598 57.7402 44.3598 57.1776C44.3775 56.1227 44.5369 55.0853 46.2376 55.0853ZM44.3775 62.9798C44.3597 62.3996 44.466 62.0128 44.7318 61.7314C45.1038 61.3622 45.6175 61.3095 46.0604 61.3095C49.0897 61.3446 52.1014 61.327 55.113 61.327H69.8344C71.9425 61.327 72.1374 61.5205 72.1374 63.6655C72.1374 63.9468 72.1374 64.2281 72.1197 64.4919C72.1197 65.1073 72.1197 65.7402 72.1551 66.338C72.1905 66.9183 72.0665 67.3227 71.8008 67.604C71.4288 67.9908 70.8442 68.0259 70.4722 68.0259C68.3995 68.0084 66.3268 68.0084 64.2541 68.0084H61.8094H57.788C53.9615 68.0084 50.1527 68.0084 46.3262 68.0435H46.273C45.7593 68.0435 45.1392 67.9732 44.7495 67.5512C44.4483 67.2347 44.3243 66.7776 44.3775 66.1095C44.466 65.0018 44.4306 63.9117 44.3775 62.9798ZM72.2083 76.1842C72.226 76.7292 72.102 77.1336 71.8362 77.415C71.4819 77.7666 70.9682 77.8194 70.543 77.8194H70.4899C67.5314 77.8018 64.5552 77.8018 61.5791 77.8018H58.3726C54.4929 77.8194 50.6133 77.8194 46.7336 77.8018C44.8026 77.8018 44.59 77.6084 44.59 75.6391V74.4963C44.59 73.6875 44.59 72.8963 44.59 72.0875C44.5723 71.7183 44.59 71.1908 44.9621 70.804C45.2455 70.5226 45.6353 70.3996 46.2199 70.3996H46.2376C54.3335 70.4172 62.4117 70.4172 70.5076 70.3996C70.9327 70.3996 71.4819 70.4347 71.8362 70.804C72.102 71.0853 72.226 71.4897 72.2083 72.0347C72.1551 73.4413 72.1551 74.8303 72.2083 76.1842Z" fill="black"/>
<path d="M74.8141 10.0044C73.4678 8.66815 71.6785 7.92969 69.783 7.92969C67.8874 7.92969 66.0628 8.68573 64.7873 9.93408C63.5295 11.1824 62.75 12.9055 62.75 14.8396C62.75 16.7736 63.494 18.5319 64.8581 19.8681C66.1868 21.2044 68.0115 21.8901 69.8361 21.9077C73.6272 21.8901 76.8514 18.655 76.8514 14.8572C76.8514 13.0286 76.1251 11.3055 74.8141 10.0044ZM73.1312 18.2154C72.2631 19.0594 71.0585 19.5341 69.7298 19.5341C67.1611 19.5341 65.0353 17.4418 65.0176 14.8923C64.9999 13.644 65.4959 12.466 66.3994 11.5692C67.3028 10.655 68.5075 10.1627 69.783 10.1627H69.8184C72.4049 10.1627 74.4421 12.2374 74.4598 14.8396C74.4598 16.1583 73.9815 17.3539 73.1312 18.2154Z" fill="black"/>
<path d="M70.9316 1.6H70.8962V2.33846C70.8962 2.54945 70.9139 2.74286 70.8784 2.95385C70.8076 3.51648 70.5241 3.85055 70.0281 3.93846C69.3018 4.06154 68.9298 3.58681 68.788 3.27033C68.416 2.46154 68.3983 1.56484 68.7703 0.632967C68.9652 0.123077 69.3726 0 69.7269 0H69.7978C70.3647 0.0351648 70.7013 0.281319 70.8253 0.791209C70.8962 1.03736 70.9139 1.31868 70.9316 1.6Z" fill="black"/>
<path d="M84.7324 14.9271C84.6969 15.56 84.3249 15.9117 83.5986 15.9996C83.4037 16.0172 83.2088 16.0172 82.9962 16.0172H82.2345V16.0348C82.1636 16.0348 82.075 16.0348 81.9865 16.0172C80.9413 15.9117 80.7995 15.3666 80.7818 14.9095C80.7641 14.2238 81.1539 13.8194 81.9156 13.7315C82.1459 13.6963 82.4116 13.6787 82.6774 13.6787C82.9785 13.6787 83.2974 13.6787 83.6517 13.749C84.4135 13.837 84.7678 14.2238 84.7324 14.9271Z" fill="black"/>
<path d="M62.1974 23.8774L61.9139 24.229C61.3825 24.9147 60.8687 25.5477 60.1601 25.6708C59.4692 25.6708 59.1858 25.407 58.9732 25.0554C58.7606 24.7213 58.796 24.3873 59.0263 24.018C59.4869 23.3675 60.0184 22.8224 60.6384 22.418C60.851 22.2598 61.0813 22.1895 61.2939 22.1895C61.5596 22.1895 61.8254 22.3125 62.0734 22.5763C62.3568 22.8928 62.6226 23.3675 62.1974 23.8774Z" fill="black"/>
<path d="M58.7622 14.8743C58.7444 15.3842 58.585 15.9468 57.4867 16.0172C57.3626 16.0348 57.2386 16.0348 57.1146 16.0348H56.902H56.6717C56.282 16.0348 55.9277 16.0348 55.6265 15.9117C55.0596 15.6655 54.8116 15.2787 54.8471 14.7161C54.8648 14.3644 54.9888 13.96 55.7328 13.7842C56.0694 13.6963 56.4237 13.6611 56.8135 13.6611C57.0438 13.6611 57.2918 13.6787 57.5398 13.6963C58.6381 13.8194 58.7622 14.3996 58.7622 14.8743Z" fill="black"/>
<path d="M70.8971 27.7798V28.2018C70.9148 28.3952 70.9148 28.5886 70.8616 28.782C70.7376 29.3798 70.401 29.6963 69.8341 29.7314C69.2495 29.7666 68.8775 29.4853 68.7004 28.9226C68.4878 28.2897 68.4701 27.5864 68.6295 26.8479C68.7889 26.127 69.161 25.7754 69.781 25.7754H69.8873C70.1176 25.793 70.8262 25.8457 70.8971 26.9534C70.9148 27.1292 70.9148 27.3226 70.9148 27.4985V27.7798H70.8971Z" fill="black"/>
<path d="M80.816 5.01102C80.816 5.74948 79.1861 7.38465 78.4598 7.38465H78.4421C78.0524 7.38465 77.6981 7.19124 77.5032 6.83959C77.2906 6.50553 77.2906 6.08355 77.5032 5.74948C77.9461 4.97586 78.5838 4.36047 79.3279 3.97366C79.4696 3.90333 79.6113 3.86816 79.753 3.86816C79.9479 3.86816 80.1251 3.92091 80.3022 4.04399C80.6388 4.25498 80.8337 4.62421 80.8337 5.01102H80.816Z" fill="black"/>
<path d="M62.393 6.3297C62.393 6.69893 62.1627 7.05058 61.8084 7.24399C61.4896 7.43739 61.1352 7.4374 60.8518 7.26157C60.0369 6.78685 59.3814 6.1363 58.9563 5.38025C58.8145 5.11652 58.8323 4.76487 59.0271 4.44838C59.2397 4.09674 59.6117 3.86816 59.966 3.86816H59.9838C60.6924 3.86816 62.4108 5.62641 62.393 6.3297Z" fill="black"/>
<path d="M80.6406 25.1254C80.4103 25.4947 80.1269 25.6705 79.7017 25.6529C78.9754 25.6353 77.3633 24.0177 77.3633 23.3144C77.3633 22.8925 77.5227 22.5936 77.8947 22.3826C78.1782 22.2068 78.6034 22.0661 78.9931 22.3826C79.5954 22.8925 80.1623 23.4551 80.6583 24.0529C80.9772 24.4397 80.8355 24.8441 80.6406 25.1254Z" fill="black"/>
</g>
<defs>
<clipPath id="clip0_457_97">
<rect width="87" height="80" fill="white"/>
</clipPath>
</defs>
</svg>
