<svg width="240" height="103" viewBox="0 0 240 103" fill="none" xmlns="http://www.w3.org/2000/svg">
<mask id="mask0_802_1561" style="mask-type:luminance" maskUnits="userSpaceOnUse" x="0" y="0" width="240" height="103">
<path d="M240 0H0V102.484H240V0Z" fill="white"/>
</mask>
<g mask="url(#mask0_802_1561)">
<path d="M40.8844 63.0067C39.966 65.7612 38.4784 68.1858 36.4556 70.2192C32.9529 73.7403 28.2053 75.6791 23.0821 75.6791C17.5035 75.6791 11.959 73.323 7.8718 69.2137C-0.283667 61.015 -0.731473 48.1263 6.87368 40.485C10.3765 36.9641 15.124 35.0253 20.2472 35.0253C25.8259 35.0253 31.3704 37.3814 35.4576 41.4904C37.3095 43.3533 38.8048 45.5007 39.9015 47.8683L39.9433 47.9594L41.7838 47.2271L41.7421 47.1284C40.6529 44.4346 39.0552 42.0216 36.9946 39.95C32.8998 35.8334 27.4577 33.5684 21.6666 33.5684C15.8754 33.5684 10.4334 35.8334 6.33857 39.95C-2.11286 48.445 -2.11286 62.2668 6.33857 70.762C10.4334 74.8786 15.8754 77.1437 21.6666 77.1437C27.4577 77.1437 32.8998 74.8786 36.9946 70.762C39.1122 68.6333 40.7364 66.1408 41.8294 63.356L41.8673 63.2535L40.9148 62.912L40.8806 63.0145L40.8844 63.0067Z" fill="white"/>
<path d="M114.383 35.2158C114.383 35.4245 114.383 56.0641 114.406 65.1209C114.414 68.2472 113.298 70.9295 111.096 73.0848C108.93 75.2092 106.417 75.9758 103.632 75.3724C100.767 74.7465 98.5997 72.9368 97.1995 69.981C96.3153 68.118 96.205 66.1719 96.2128 64.5138C96.262 55.4916 96.3111 35.3562 96.3111 35.1551V35.0488L94.1328 35.0526V35.1589C94.1328 35.3903 94.2468 58.4469 94.3723 65.341C94.4288 68.5431 95.7041 71.3849 98.1558 73.7792C100.053 75.6343 102.395 76.5792 104.759 76.5792C106.649 76.5792 108.55 75.9721 110.247 74.7465C113.465 72.4171 115.112 69.0743 115.15 64.8098C115.226 55.7834 115.229 35.4207 115.229 35.2158V35.1095H114.387V35.2158H114.383Z" fill="white"/>
<path d="M82.7915 70.2214C79.2887 73.7419 74.541 75.6808 69.4179 75.6808C63.8393 75.6808 58.2948 73.3247 54.2074 69.2159C46.0521 61.0167 45.6043 48.1281 53.2056 40.4868C56.7083 36.9659 61.4561 35.0271 66.5792 35.0271C72.1578 35.0271 77.7023 37.3833 81.7897 41.4923C89.9449 49.6913 90.3931 62.5801 82.7915 70.2214ZM67.9988 33.5664C62.2074 33.5664 56.7653 35.8315 52.6707 39.9481C44.2191 48.4431 44.2191 62.2648 52.6707 70.76C56.7653 74.8766 62.2074 77.1417 67.9988 77.1417C73.7897 77.1417 79.2318 74.8766 83.3264 70.76C91.7782 62.2648 91.7782 48.4431 83.3264 39.9481C79.2318 35.8315 73.7897 33.5664 67.9988 33.5664Z" fill="white"/>
<path d="M239.999 35.6877V35.0466L239.908 35.0312H239.866C234.068 35.0351 222.474 35.0351 222.474 35.0351H222.367L222.375 76.5654L239.995 76.5764V75.9542H224.545C224.545 74.4442 224.565 57.5494 224.576 56.0807H233.464V55.5081H224.545L224.565 35.6573L239.999 35.6839V35.6877Z" fill="white"/>
<path d="M122.371 35.6812H122.477C122.572 35.6812 131.498 35.6812 132.565 35.6888C132.58 38.0069 132.61 76.0087 132.61 76.3993V76.5055H134.773L134.796 35.6812H145.042V35.0703H122.375V35.6812H122.371Z" fill="white"/>
<path d="M172.422 35.2158C172.422 35.4245 172.422 56.0641 172.445 65.1209C172.453 68.2472 171.337 70.9258 169.136 73.0848C166.965 75.2092 164.456 75.9758 161.671 75.3724C158.806 74.7465 156.639 72.9368 155.239 69.981C154.354 68.1143 154.244 66.1719 154.252 64.5138C154.301 55.4916 154.35 35.3562 154.35 35.1551V35.0488L152.172 35.0526V35.1589C152.172 35.3903 152.286 58.4469 152.411 65.341C152.468 68.5431 153.743 71.3849 156.195 73.7792C158.092 75.6343 160.434 76.5792 162.798 76.5792C164.688 76.5792 166.589 75.9721 168.285 74.7465C171.504 72.4171 173.151 69.0743 173.189 64.8098C173.265 55.7834 173.268 35.4207 173.268 35.2158V35.1095H172.426V35.2158H172.422Z" fill="white"/>
<path d="M184.764 58.0538L184.73 35.6878C185.634 35.684 192.07 35.6499 194.271 35.6954L194.594 35.703C196.407 35.7409 198.286 35.7788 200.096 36.0369C203.61 36.5415 206.457 38.4651 208.327 41.6066C211.504 46.9449 211.367 52.4119 207.937 57.4206C205.219 61.3892 201.178 63.4342 196.248 63.305C195.185 63.282 193.307 62.9787 192.533 62.4778C188.707 60.0041 185.258 58.2933 184.764 58.0501M219.01 76.3074C216.49 77.1231 213.769 76.9374 210.927 75.7573C208.301 74.6645 205.997 72.9798 203.906 71.3259C202.108 69.9032 199.224 67.6491 196.905 65.8394C195.686 64.8872 194.578 64.0261 193.994 63.5628C194.051 63.5821 194.093 63.5931 194.108 63.5973C196.013 64.0297 197.967 64.0904 199.914 63.7793C207.948 62.493 213.504 55.4133 212.566 47.6657C212.039 43.3253 209.974 39.8499 206.423 37.3306C204.236 35.7788 201.663 35.0276 198.567 35.0352C193.276 35.0428 182.696 35.0466 182.696 35.0466H182.59V76.4972H184.734V59.6778C185.687 60.2357 190.795 63.3014 196.681 68.1803C199.99 70.9233 203.895 74.0234 208.384 76.1327C210.658 77.1989 212.768 77.7265 214.806 77.7265C215.071 77.7265 215.333 77.7186 215.599 77.6998C216.919 77.6125 218.149 77.2862 219.253 76.7361L219.36 76.6828L219.291 76.5845C219.098 76.2959 219.09 76.2844 219.01 76.3152" fill="white"/>
<path d="M103.495 9.08392H101.233C101.188 7.22102 100.121 5.72994 98.812 5.72994C97.5027 5.72994 96.3875 7.28931 96.3875 9.2091V14.8168C96.3875 16.7404 97.4724 18.2998 98.812 18.2998C100.152 18.2998 101.207 16.7859 101.237 14.8965H103.491V15.2683C103.491 18.1784 101.397 20.5421 98.812 20.5421C96.228 20.5421 94.1328 18.1821 94.1328 15.2683V8.76518C94.1328 5.85135 96.228 3.49141 98.812 3.49141C101.397 3.49141 103.491 5.85135 103.491 8.76518L103.499 9.08392H103.495ZM145.043 4.06811L145.035 20.2992H142.538V4.06811H145.039H145.043ZM145.043 0.425781L145.035 3.02853H142.538V0.425781H145.039H145.043ZM141.077 0.425781L141.069 20.2992H138.625V0.425781H141.077ZM114.201 3.92394H116.839L119.233 14.3425L121.529 3.92394H124.174L120.209 20.3486H118.163L114.205 3.92394H114.201ZM111.708 8.33266C110.774 8.99284 107.981 10.6546 106.759 11.4476C105.537 12.2444 104.064 13.5685 104.064 16.2547C104.064 18.6602 106.049 20.6104 108.493 20.6104C109.73 20.6104 110.899 20.1854 111.704 19.3811V20.3448L114.125 20.2461V8.81072C114.125 5.9234 112.091 3.58247 109.582 3.58247C107.074 3.58247 105.04 5.9234 105.04 8.81072V10.2145H107.415V8.69313L107.423 8.52236C107.423 7.07681 108.387 5.90824 109.579 5.90824C110.706 5.90824 111.636 6.96298 111.723 8.30609L111.715 8.33266H111.708ZM111.727 10.6774V15.974C111.723 17.4195 110.577 18.5919 109.165 18.5919C107.753 18.5919 106.607 17.4195 106.607 15.974C106.607 14.3918 107.932 13.3788 109.055 12.5365C110.178 11.6905 111.73 10.6774 111.73 10.6774M137.255 0.425781L137.248 20.2992H134.755V0.425781H137.255ZM130.812 8.34406C129.874 9.00424 127.081 10.666 125.859 11.459C124.637 12.252 123.164 13.5799 123.164 16.2623C123.164 18.6716 125.149 20.6218 127.593 20.6218C128.831 20.6218 129.996 20.1968 130.8 19.3925V20.3561L133.221 20.2575V8.82212C133.221 5.9348 131.187 3.59385 128.682 3.59385C126.178 3.59385 124.14 5.9348 124.14 8.82212V10.2259H126.512V8.70447L126.519 8.52994C126.519 7.08063 127.483 5.91206 128.675 5.91206C129.867 5.91206 130.728 6.9668 130.823 8.30991L130.815 8.33647L130.812 8.34406ZM130.827 10.6888V15.9815C130.827 17.4271 129.681 18.5995 128.265 18.5995C126.85 18.5995 125.711 17.4271 125.711 15.9815C125.711 14.3994 127.032 13.3902 128.155 12.5441C129.278 11.7018 130.827 10.6888 130.827 10.6888Z" fill="white"/>
<path d="M221.812 20.043H152.109V20.2251H221.812V20.043Z" fill="white"/>
<path d="M87.8864 20.043H18.1836V20.2251H87.8864V20.043Z" fill="white"/>
<path d="M65.2796 100.905V101.266H60.832V96.1211H61.2153V100.905H65.2796Z" fill="white"/>
<path d="M73.1615 96.1211V98.8416C73.1615 100.317 72.2512 101.421 70.5241 101.421C68.7976 101.421 67.8789 100.321 67.8789 98.8416V96.1211H68.2622V98.8186C68.2622 100.184 69.0936 101.057 70.5278 101.057C71.9626 101.057 72.7861 100.181 72.7861 98.8186V96.1211H73.1694H73.1615Z" fill="white"/>
<path d="M79.1898 98.6785L81.6645 101.266H81.1594L78.932 98.9514L76.704 101.266H76.2109L78.6815 98.6858L76.2183 96.1211H76.727L78.9471 98.4202L81.1594 96.1211H81.6567L79.1898 98.6785Z" fill="white"/>
<path d="M89.9975 96.1211V98.8416C89.9975 100.317 89.0866 101.421 87.3595 101.421C85.633 101.421 84.7148 100.321 84.7148 98.8416V96.1211H85.0981V98.8186C85.0981 100.184 85.929 101.057 87.3637 101.057C88.798 101.057 89.6215 100.181 89.6215 98.8186V96.1211H90.0048H89.9975Z" fill="white"/>
<path d="M97.1321 98.8489C98.0806 98.8489 98.6767 98.428 98.6767 97.6578C98.6767 96.8876 98.0806 96.474 97.1321 96.474H94.1606V98.8453H97.1321V98.8489ZM98.7258 101.266L96.923 99.2019H94.1679V101.266H93.7773V96.1211H97.1509C98.2971 96.1211 99.0636 96.6942 99.0636 97.6578C99.0636 98.5608 98.4032 99.1224 97.3936 99.1946L99.2231 101.266H98.7222H98.7258Z" fill="white"/>
<path d="M102.17 96.1211L104.53 99.0921L106.883 96.1211H107.346L104.716 99.4408V101.266H104.333V99.4408L101.699 96.1211H102.17Z" fill="white"/>
<path d="M110.037 101.055C110.037 101.453 109.873 101.871 109.604 102.209L109.456 102.106C109.691 101.776 109.771 101.541 109.793 101.298C109.778 101.313 109.736 101.321 109.699 101.321C109.536 101.321 109.41 101.196 109.41 101.028C109.41 100.862 109.536 100.732 109.718 100.732C109.9 100.732 110.037 100.865 110.037 101.055Z" fill="white"/>
<path d="M123.225 96.1211V98.8416C123.225 100.317 122.314 101.421 120.587 101.421C118.86 101.421 117.941 100.321 117.941 98.8416V96.1211H118.325V98.8186C118.325 100.184 119.156 101.057 120.591 101.057C122.025 101.057 122.849 100.181 122.849 98.8186V96.1211H123.232H123.225Z" fill="white"/>
<path d="M132.321 96.1211V101.266H131.983L127.388 96.6068V101.266H127.012V96.1211H127.44L131.945 100.7V96.1211H132.321Z" fill="white"/>
<path d="M140.873 96.4662H138.361V101.266H137.977V96.4662H135.473V96.1211H140.873V96.4662Z" fill="white"/>
<path d="M147.124 99.3917L145.492 96.474L143.868 99.3917H147.124ZM147.317 99.7446H143.678L142.831 101.266H142.406L145.287 96.1211H145.712L148.592 101.266H148.167L147.313 99.7446H147.317Z" fill="white"/>
<path d="M158.064 96.1211V101.266H157.681V96.6638L154.91 100.002H154.88L152.102 96.6638V101.266H151.727V96.1211H152.147L154.903 99.4408L157.658 96.1211H158.064Z" fill="white"/>
<path d="M166.8 100.905V101.266H161.953V96.1211H166.724V96.474H162.336V98.4657H166.101V98.8265H162.336V100.905H166.8Z" fill="white"/>
<path d="M175.285 98.6936C175.285 97.2516 174.159 96.474 172.602 96.474H170.61V100.905H172.602C174.159 100.905 175.285 100.135 175.285 98.6936ZM175.676 98.6936C175.676 100.264 174.485 101.266 172.626 101.266H170.227V96.1211H172.626C174.485 96.1211 175.676 97.1229 175.676 98.6936Z" fill="white"/>
<path d="M178.543 101.029C178.543 100.862 178.668 100.736 178.85 100.736C179.032 100.736 179.158 100.862 179.158 101.029C179.158 101.195 179.032 101.325 178.85 101.325C178.668 101.325 178.543 101.199 178.543 101.029Z" fill="white"/>
</g>
</svg>
