<svg width="459" height="196" viewBox="0 0 459 196" fill="none" xmlns="http://www.w3.org/2000/svg">
<path d="M78.1914 120.502C76.435 125.77 73.5899 130.407 69.7214 134.296C63.0224 141.03 53.9427 144.738 44.1445 144.738C33.4754 144.738 22.8715 140.232 15.0548 132.373C-0.542529 116.693 -1.39896 92.0432 13.1459 77.4292C19.845 70.6955 28.9246 66.9876 38.7228 66.9876C49.392 66.9876 59.9958 71.4937 67.8126 79.3521C71.3545 82.9149 74.2141 87.0219 76.3116 91.5498L76.3915 91.724L79.9116 90.3235L79.8317 90.1348C77.7487 84.9829 74.6931 80.368 70.7521 76.4061C62.9208 68.5331 52.5129 64.2012 41.4373 64.2012C30.3617 64.2012 19.9538 68.5331 12.1225 76.4061C-4.04085 92.6527 -4.04085 119.087 12.1225 135.334C19.9538 143.207 30.3617 147.539 41.4373 147.539C52.5129 147.539 62.9208 143.207 70.7521 135.334C74.802 131.263 77.9084 126.496 79.9987 121.17L80.0712 120.974L78.2495 120.321L78.1842 120.517L78.1914 120.502Z" fill="white"/>
<path d="M218.756 67.3505C218.756 67.7496 218.756 107.223 218.799 124.544C218.814 130.523 216.68 135.653 212.47 139.775C208.326 143.838 203.521 145.304 198.194 144.15C192.714 142.953 188.57 139.492 185.892 133.839C184.201 130.276 183.99 126.554 184.005 123.383C184.099 106.128 184.193 67.619 184.193 67.2344V67.0312L180.027 67.0385V67.2417C180.027 67.6843 180.245 111.78 180.485 124.965C180.593 131.089 183.032 136.524 187.721 141.103C191.35 144.651 195.828 146.458 200.35 146.458C203.964 146.458 207.6 145.297 210.845 142.953C216.999 138.498 220.149 132.105 220.222 123.949C220.367 106.686 220.374 67.7424 220.374 67.3505V67.1473H218.763V67.3505H218.756Z" fill="white"/>
<path d="M158.342 134.298C151.643 141.031 142.563 144.739 132.765 144.739C122.096 144.739 111.492 140.233 103.675 132.375C88.078 116.694 87.2216 92.0446 101.759 77.4306C108.458 70.6969 117.538 66.9889 127.336 66.9889C138.005 66.9889 148.609 71.4951 156.426 79.3535C172.023 95.0342 172.88 119.684 158.342 134.298ZM130.051 64.1953C118.975 64.1953 108.567 68.5273 100.736 76.4002C84.5724 92.6469 84.5724 119.081 100.736 135.328C108.567 143.201 118.975 147.533 130.051 147.533C141.126 147.533 151.534 143.201 159.365 135.328C175.529 119.081 175.529 92.6469 159.365 76.4002C151.534 68.5273 141.126 64.1953 130.051 64.1953Z" fill="white"/>
<path d="M458.998 68.2534V67.0271L458.823 66.998H458.744C447.654 67.0053 425.481 67.0053 425.481 67.0053H425.277L425.292 146.432L458.99 146.453V145.263H429.443C429.443 142.375 429.48 110.064 429.501 107.255H446.5V106.16H429.443L429.48 68.1953L458.998 68.2461V68.2534Z" fill="white"/>
<path d="M234.035 68.2386H234.238C234.42 68.2386 251.49 68.2386 253.53 68.2531C253.559 72.6866 253.617 145.365 253.617 146.112V146.315H257.754L257.798 68.2386H277.394V67.0703H234.042V68.2386H234.035Z" fill="white"/>
<path d="M329.76 67.3505C329.76 67.7496 329.76 107.223 329.803 124.544C329.818 130.523 327.684 135.646 323.474 139.775C319.323 143.838 314.525 145.304 309.198 144.15C303.718 142.953 299.574 139.492 296.896 133.839C295.205 130.269 294.994 126.554 295.009 123.383C295.103 106.128 295.197 67.619 295.197 67.2344V67.0312L291.031 67.0385V67.2417C291.031 67.6843 291.249 111.78 291.489 124.965C291.597 131.089 294.036 136.524 298.725 141.103C302.354 144.651 306.832 146.458 311.353 146.458C314.968 146.458 318.604 145.297 321.848 142.953C328.003 138.498 331.153 132.105 331.226 123.949C331.371 106.686 331.378 67.7424 331.378 67.3505V67.1473H329.767V67.3505H329.76Z" fill="white"/>
<path d="M353.362 111.027L353.297 68.2521C355.024 68.2448 367.333 68.1795 371.543 68.2666L372.16 68.2811C375.629 68.3537 379.222 68.4262 382.684 68.9197C389.405 69.8847 394.848 73.5636 398.426 79.5718C404.501 89.7812 404.24 100.237 397.679 109.816C392.482 117.406 384.752 121.317 375.324 121.07C373.292 121.026 369.699 120.446 368.219 119.488C360.903 114.757 354.305 111.485 353.362 111.02M418.857 145.937C414.038 147.497 408.834 147.142 403.398 144.885C398.376 142.795 393.97 139.573 389.971 136.41C386.531 133.689 381.015 129.378 376.58 125.917C374.25 124.096 372.131 122.449 371.013 121.563C371.122 121.6 371.202 121.621 371.231 121.629C374.874 122.456 378.612 122.572 382.336 121.977C397.701 119.517 408.326 105.977 406.533 91.1599C405.525 82.8588 401.576 76.2121 394.783 71.394C390.602 68.4262 385.681 66.9895 379.759 67.004C369.641 67.0185 349.406 67.0258 349.406 67.0258H349.203V146.3H353.304V114.133C355.126 115.2 364.895 121.063 376.152 130.394C382.481 135.64 389.949 141.569 398.535 145.603C402.883 147.642 406.918 148.651 410.816 148.651C411.324 148.651 411.824 148.636 412.333 148.6C414.858 148.433 417.21 147.809 419.322 146.757L419.525 146.655L419.394 146.467C419.024 145.915 419.01 145.893 418.857 145.952" fill="white"/>
<path d="M197.933 17.3712H193.607C193.52 13.8084 191.48 10.9567 188.976 10.9567C186.472 10.9567 184.339 13.939 184.339 17.6106V28.3353C184.339 32.0142 186.414 34.9965 188.976 34.9965C191.538 34.9965 193.556 32.1012 193.614 28.4877H197.925V29.1988C197.925 34.7643 193.919 39.2849 188.976 39.2849C184.034 39.2849 180.027 34.7715 180.027 29.1988V16.7616C180.027 11.1889 184.034 6.67551 188.976 6.67551C193.919 6.67551 197.925 11.1889 197.925 16.7616L197.94 17.3712H197.933ZM277.392 7.77845L277.378 38.8205H272.602V7.77845H277.385H277.392ZM277.392 0.8125L277.378 5.79026H272.602V0.8125H277.385H277.392ZM269.808 0.8125L269.793 38.8205H265.119V0.8125H269.808ZM218.407 7.50272H223.452L228.031 27.4283L232.422 7.50272H237.481L229.897 38.9148H225.985L218.415 7.50272H218.407ZM213.639 15.9344C211.853 17.197 206.512 20.3752 204.174 21.8918C201.837 23.4156 199.021 25.948 199.021 31.0854C199.021 35.6858 202.817 39.4155 207.491 39.4155C209.857 39.4155 212.093 38.6028 213.632 37.0645V38.9076L218.262 38.7189V16.8487C218.262 11.3267 214.372 6.84966 209.574 6.84966C204.777 6.84966 200.887 11.3267 200.887 16.8487V19.5335H205.43V16.6238L205.445 16.2972C205.445 13.5326 207.288 11.2977 209.567 11.2977C211.723 11.2977 213.501 13.3149 213.668 15.8836L213.653 15.9344H213.639ZM213.675 20.4188V30.5484C213.668 33.313 211.476 35.5552 208.776 35.5552C206.076 35.5552 203.884 33.313 203.884 30.5484C203.884 27.5226 206.417 25.5852 208.565 23.9743C210.714 22.3562 213.682 20.4188 213.682 20.4188M262.499 0.8125L262.485 38.8205H257.716V0.8125H262.499ZM250.175 15.9562C248.382 17.2188 243.041 20.397 240.704 21.9135C238.367 23.4301 235.55 25.9698 235.55 31.0999C235.55 35.7076 239.346 39.4373 244.02 39.4373C246.387 39.4373 248.615 38.6246 250.153 37.0863V38.9293L254.784 38.7407V16.8705C254.784 11.3485 250.894 6.87143 246.103 6.87143C241.313 6.87143 237.416 11.3485 237.416 16.8705V19.5553H241.952V16.6455L241.966 16.3117C241.966 13.5399 243.81 11.305 246.089 11.305C248.368 11.305 250.016 13.3222 250.197 15.8909L250.182 15.9417L250.175 15.9562ZM250.204 20.4405V30.5629C250.204 33.3275 248.012 35.5697 245.305 35.5697C242.598 35.5697 240.421 33.3275 240.421 30.5629C240.421 27.5371 242.946 25.6069 245.095 23.9888C247.243 22.3779 250.204 20.4405 250.204 20.4405Z" fill="white"/>
<path d="M424.213 38.334H290.906V38.6823H424.213V38.334Z" fill="white"/>
<path d="M168.08 38.334H34.7734V38.6823H168.08V38.334Z" fill="white"/>
<path d="M124.846 192.98V193.669H116.34V183.83H117.073V192.98H124.846Z" fill="white"/>
<path d="M139.919 183.83V189.033C139.919 191.855 138.178 193.967 134.875 193.967C131.573 193.967 129.816 191.863 129.816 189.033V183.83H130.549V188.989C130.549 191.601 132.139 193.27 134.882 193.27C137.626 193.27 139.201 191.594 139.201 188.989V183.83H139.934H139.919Z" fill="white"/>
<path d="M151.451 188.721L156.184 193.669H155.218L150.958 189.243L146.697 193.669H145.754L150.479 188.735L145.768 183.83H146.741L150.987 188.227L155.218 183.83H156.169L151.451 188.721Z" fill="white"/>
<path d="M172.119 183.83V189.033C172.119 191.855 170.377 193.967 167.074 193.967C163.772 193.967 162.016 191.863 162.016 189.033V183.83H162.749V188.989C162.749 191.601 164.338 193.27 167.082 193.27C169.825 193.27 171.4 191.594 171.4 188.989V183.83H172.133H172.119Z" fill="white"/>
<path d="M185.768 189.047C187.582 189.047 188.722 188.242 188.722 186.769C188.722 185.296 187.582 184.505 185.768 184.505H180.085V189.04H185.768V189.047ZM188.816 193.669L185.368 189.722H180.099V193.669H179.352V183.83H185.804C187.996 183.83 189.462 184.926 189.462 186.769C189.462 188.496 188.199 189.57 186.268 189.708L189.767 193.669H188.809H188.816Z" fill="white"/>
<path d="M195.4 183.83L199.914 189.512L204.414 183.83H205.3L200.27 190.179V193.669H199.537V190.179L194.5 183.83H195.4Z" fill="white"/>
<path d="M210.444 193.269C210.444 194.031 210.132 194.829 209.616 195.475L209.333 195.279C209.783 194.648 209.936 194.198 209.979 193.734C209.95 193.763 209.87 193.777 209.798 193.777C209.486 193.777 209.246 193.538 209.246 193.218C209.246 192.899 209.486 192.652 209.834 192.652C210.182 192.652 210.444 192.906 210.444 193.269Z" fill="white"/>
<path d="M235.666 183.83V189.033C235.666 191.855 233.924 193.967 230.621 193.967C227.319 193.967 225.562 191.863 225.562 189.033V183.83H226.296V188.989C226.296 191.601 227.885 193.27 230.629 193.27C233.372 193.27 234.947 191.594 234.947 188.989V183.83H235.68H235.666Z" fill="white"/>
<path d="M253.064 183.83V193.669H252.418L243.629 184.759V193.669H242.91V183.83H243.73L252.345 192.588V183.83H253.064Z" fill="white"/>
<path d="M269.422 184.49H264.617V193.669H263.884V184.49H259.094V183.83H269.422V184.49Z" fill="white"/>
<path d="M281.377 190.085L278.256 184.505L275.15 190.085H281.377ZM281.747 190.76H274.787L273.168 193.669H272.355L277.864 183.83H278.677L284.186 193.669H283.373L281.74 190.76H281.747Z" fill="white"/>
<path d="M302.3 183.83V193.669H301.567V184.868L296.269 191.253H296.211L290.898 184.868V193.669H290.18V183.83H290.985L296.255 190.179L301.524 183.83H302.3Z" fill="white"/>
<path d="M319.003 192.98V193.669H309.734V183.83H318.858V184.505H310.467V188.314H317.667V189.004H310.467V192.98H319.003Z" fill="white"/>
<path d="M335.237 188.75C335.237 185.992 333.082 184.505 330.106 184.505H326.296V192.98H330.106C333.082 192.98 335.237 191.507 335.237 188.75ZM335.985 188.75C335.985 191.754 333.706 193.669 330.15 193.669H325.562V183.83H330.15C333.706 183.83 335.985 185.746 335.985 188.75Z" fill="white"/>
<path d="M341.465 193.219C341.465 192.9 341.704 192.66 342.053 192.66C342.401 192.66 342.641 192.9 342.641 193.219C342.641 193.538 342.401 193.785 342.053 193.785C341.704 193.785 341.465 193.545 341.465 193.219Z" fill="white"/>
</svg>
