<svg width="39" height="39" viewBox="0 0 39 39" fill="none" xmlns="http://www.w3.org/2000/svg">
<g clip-path="url(#clip0_392_2023)">
<path d="M36.4198 0.165735C36.4023 0.0785059 36.3848 0.0261686 36.3761 0.00872288H36.2274C33.8571 0.0174458 31.4869 0.0174458 29.1166 0.0174458H24.4198C22.102 0.0261686 19.7843 0.0261686 17.4665 0C17.2828 0 17.2216 0.0261686 17.2128 0.0261686C17.2128 0.0348915 17.1778 0.0959517 17.1429 0.270409C16.7668 2.26795 16.3557 4.26549 15.9534 6.26303L15.3499 9.28987C15.0962 10.5372 14.8513 11.7846 14.5889 13.032C14.7901 13.0233 15 13.0233 15.2099 13.032C15.4461 13.032 15.6822 13.032 15.9096 13.0233C16.0408 13.0145 16.4606 12.9884 16.7668 13.2762C17.0466 13.5466 17.0816 13.913 17.0816 14.166C17.0641 16.3903 17.0641 18.6059 17.0816 20.8302C17.0816 21.0919 17.0554 21.467 16.7755 21.7374C16.5044 22.0078 16.1195 22.034 15.8746 22.034C15.0962 22.0165 14.3178 22.0165 13.5394 22.034C12.7872 22.034 12.035 22.034 11.2828 22.0253C11.0292 21.9991 10.9155 22.0689 10.7755 22.287C9.90087 23.5692 9.01749 24.8602 8.14286 26.1425C7.21574 27.4945 6.27988 28.8466 5.36152 30.2073C4.97668 30.783 4.49563 31.0447 3.80466 31.0186C3.13994 31.0098 2.48396 31.0098 1.81924 31.0098C1.22449 31.0098 0.638484 31.0186 0.0524781 31.0011H0V31.0709C0.0174927 33.6965 0.0174927 36.3221 0 38.9477V39H0.0524781C1.33819 39 2.58017 38.9825 3.78717 38.9825C5.06414 38.9825 6.30612 38.9913 7.53061 39C7.77551 39.0262 7.90671 38.9477 8.07289 38.7034C8.92128 37.456 9.76968 36.2087 10.6268 34.9613C11.5714 33.5831 12.516 32.2049 13.4519 30.8267C13.8455 30.2509 14.309 29.9805 14.9913 30.0067C16.828 30.0416 17.0729 30.2946 17.0729 32.074V33.8971C17.0729 35.5806 17.0729 37.2729 17.0641 38.9564V39C17.5277 38.9651 17.9913 38.9651 18.4373 39H18.4723V38.9564C18.4548 38.4417 18.4636 37.9358 18.4636 37.4212C18.4636 36.9065 18.4723 36.3919 18.4548 35.8859C18.4461 35.633 18.4723 35.2753 18.7347 35.0049C19.0058 34.7345 19.3644 34.6647 19.6181 34.6996C24.4111 34.7171 29.1953 34.7171 33.9883 34.6996C34.277 34.6996 34.6006 34.7345 34.8717 35.0049C35.1341 35.2753 35.1516 35.633 35.1516 35.8772C35.1341 36.4878 35.1341 37.0897 35.1429 37.6916C35.1429 38.1277 35.1429 38.5551 35.1341 38.9913C35.6327 38.9738 36.0787 38.9738 36.5248 38.9825V14.5149C36.5335 14.4276 36.5423 14.3491 36.5335 14.2619C36.4898 13.8607 36.5773 13.5466 36.7872 13.3286C37.0058 13.1018 37.312 13.0058 37.723 13.032C37.9504 13.0494 38.1866 13.0407 38.4227 13.0407C38.6152 13.032 38.8076 13.032 39 13.0407C38.1254 8.74905 37.2682 4.46611 36.4198 0.174458V0.165735ZM17.0729 24.5724C17.0554 24.8951 17.0641 25.2178 17.0641 25.5406V25.9942L17.0729 26.439C17.0641 26.8403 17.0641 27.2416 17.0729 27.6515C17.0729 27.9743 16.9942 28.2272 16.8105 28.4104C16.6181 28.6023 16.3644 28.6808 16.0321 28.6896C15.6735 28.6896 15.3149 28.6896 14.965 28.6896C14.4752 28.6896 13.9942 28.6896 13.5131 28.6808C13.3557 28.6808 13.2945 28.6983 13.1545 28.8989C12.3149 30.1201 11.4752 31.35 10.6356 32.5712C9.65598 34.0105 8.66764 35.4498 7.68805 36.8978C7.3207 37.4386 6.88338 37.6741 6.28863 37.6741H6.22741C5.06414 37.6479 3.8484 37.6479 2.50146 37.6741C2.36152 37.6828 1.9242 37.6828 1.61808 37.3863C1.34694 37.1071 1.3207 36.7408 1.32945 36.4878C1.35569 35.5545 1.35569 34.5949 1.32945 33.5482C1.32945 33.2952 1.34694 32.9376 1.61808 32.6672C1.9242 32.3706 2.34402 32.3793 2.48396 32.3881C2.86006 32.3968 3.2449 32.3881 3.62974 32.3881C4.11953 32.3793 4.60933 32.3793 5.09913 32.4055C5.3965 32.4229 5.5277 32.3444 5.71137 32.0566C6.63848 30.6958 7.5656 29.3438 8.50146 27.983C9.39359 26.6746 10.2945 25.3661 11.1778 24.0577C11.519 23.5605 11.965 23.3163 12.5685 23.3512C13.863 23.3773 14.9125 23.3773 15.8746 23.3512C16.0321 23.3512 16.4869 23.3337 16.8017 23.6565C17.0816 23.9443 17.0904 24.3281 17.0729 24.5898V24.5724ZM17.5452 11.7148H17.519C17.2303 11.7148 16.8717 11.6712 16.6356 11.3834C16.3644 11.0519 16.4519 10.6157 16.4869 10.4238C17.0466 7.71103 17.5889 4.98949 18.1224 2.26795C18.2449 1.64862 18.6297 1.3346 19.2595 1.3346H19.277C21.2099 1.34332 23.1341 1.35205 25.0671 1.3346C25.1983 1.32588 25.5831 1.32588 25.863 1.60501C26.1166 1.85797 26.1429 2.18944 26.1429 2.41624C26.1341 3.41937 26.1341 4.4225 26.1341 5.41691V7.68486C26.1341 8.64437 26.1254 9.61261 26.1429 10.5809C26.1516 10.8164 26.1254 11.1653 25.863 11.427C25.6006 11.6887 25.2332 11.7061 24.9971 11.7148C22.5131 11.6974 20.0292 11.6887 17.5452 11.7148ZM34.793 33.0161C34.4344 33.3737 33.9534 33.3737 33.0787 33.3737H24.8834C23.1429 33.3737 21.3936 33.3737 19.6531 33.3825H19.6268C19.3732 33.3825 19.0146 33.3476 18.7522 33.0859C18.4898 32.8242 18.4548 32.4491 18.4548 32.1874C18.4548 30.2684 18.7259 30.0067 20.6327 30.0067H33.8484C34.8805 30.0154 35.1341 30.2597 35.1429 31.2977C35.1429 32.1787 35.1429 32.6672 34.793 33.0161ZM29.6239 24.8166V25.6191C29.6152 26.2733 29.6152 26.9188 29.6239 27.573C29.6327 27.7039 29.6414 28.1138 29.344 28.4017C29.0816 28.6634 28.723 28.6896 28.5481 28.6896H28.4956C27.3411 28.6721 26.1778 28.6721 25.0146 28.6896C24.7959 28.6896 24.4548 28.6634 24.1924 28.4104C23.9125 28.1313 23.9125 27.7388 23.9213 27.6079V25.3836C23.9125 24.3543 23.9125 23.325 23.93 22.287C23.9563 21.2053 24.4636 20.2371 25.3032 19.7137C26.0904 19.2252 27.0612 19.1729 27.9621 19.5741C29.0029 20.0452 29.5802 20.9 29.6064 21.9904C29.6239 22.6446 29.6239 23.3075 29.6152 23.9618V24.8166H29.6239ZM35.1516 27.4683C35.1516 27.7736 35.1166 28.1575 34.8192 28.4279C34.5743 28.6634 34.2507 28.6983 34.0496 28.6983C33.9883 28.6983 33.9359 28.6896 33.9009 28.6896C33.2624 28.6459 32.6239 28.6634 32.1429 28.6896C32.0029 28.6896 31.6006 28.7157 31.3032 28.4279C31.0321 28.1662 31.0058 27.8085 31.0058 27.5643C31.0233 25.8023 31.0233 24.0315 31.0146 22.2608C30.9971 20.0801 29.5977 18.414 27.4461 18.0215C26.2915 17.8121 25.0933 18.1436 24.1312 18.9199C23.1866 19.6875 22.6268 20.7779 22.6093 21.9119C22.5656 23.8047 22.5831 25.6889 22.6006 27.5207C22.6006 27.7824 22.5743 28.1575 22.2945 28.4279C21.9883 28.7244 21.5598 28.6896 21.4111 28.6896C20.8426 28.6634 20.2653 28.6634 19.5831 28.6896C19.3469 28.6983 19.0058 28.6721 18.7522 28.4191C18.551 28.2272 18.4548 27.9743 18.4548 27.6254C18.4636 23.1069 18.4723 18.5972 18.4548 14.0787C18.4548 13.7473 18.551 13.4856 18.7347 13.3024C19.0146 13.0233 19.3994 13.032 19.6268 13.0233C21.4461 13.032 23.2653 13.032 25.0845 13.032H28.6968C30.4373 13.032 32.1866 13.032 33.9271 13.0145C34.1983 13.0233 34.5743 13.0407 34.8455 13.3198C35.1166 13.5815 35.1516 13.9479 35.1516 14.2357C35.1341 18.6495 35.1341 23.0546 35.1516 27.4683ZM36.9971 11.4183C36.7609 11.7061 36.4373 11.7061 36.0262 11.7061H33.9271C32.1866 11.6974 30.4548 11.6974 28.723 11.7148H28.688C28.3819 11.7148 28.0146 11.6712 27.7522 11.4008C27.4723 11.1217 27.4461 10.7291 27.4548 10.4675C27.481 9.51666 27.4811 8.56587 27.4723 7.61507V5.34713C27.4723 4.38761 27.4723 3.42809 27.4723 2.4773C27.4636 2.23306 27.4898 1.88414 27.7522 1.62246C28.0146 1.36077 28.3732 1.34332 28.6181 1.3346C30.4898 1.35205 32.3703 1.34332 34.242 1.3346C34.5044 1.3346 35.2915 1.32588 35.484 2.31156C35.8338 4.15209 36.2099 5.9839 36.5773 7.82442L37.102 10.4238C37.1808 10.7989 37.242 11.1304 37.0058 11.4183H36.9971Z" fill="white"/>
</g>
<defs>
<clipPath id="clip0_392_2023">
<rect width="39" height="39" fill="white"/>
</clipPath>
</defs>
</svg>
