<svg width="42" height="39" viewBox="0 0 42 39" fill="none" xmlns="http://www.w3.org/2000/svg">
<g clip-path="url(#clip0_392_2014)">
<path d="M10.2628 30.5148V30.7985C10.2628 31.3143 10.1085 31.7097 9.80866 31.9848C10.297 32.4661 10.7768 32.9561 11.2566 33.4375C11.3337 33.5148 11.4109 33.6008 11.4708 33.6782C11.4708 33.0335 11.4708 32.3888 11.4794 31.7441C11.0681 31.3315 10.6655 30.9274 10.2628 30.5148ZM37.7227 15.6352C37.1658 15.0679 36.6089 14.5005 36.0349 13.9504C35.9321 13.8558 35.7179 13.6495 35.7521 13.383C35.795 13.108 36.052 12.9704 36.1891 12.8931C37.5514 12.1366 38.194 11.0363 38.1511 9.52344C38.134 8.81857 37.8427 8.19966 37.2344 7.57215C36.6004 6.92745 35.9749 6.29135 35.3237 5.66384C35.1695 5.5263 34.7154 5.08791 35.2466 4.47759C35.4523 4.2369 35.5122 3.99622 35.4094 3.73834C35.3323 3.53203 35.1867 3.3859 34.9896 3.33433C34.784 3.28275 34.5441 3.35152 34.3384 3.52344C33.773 4.01341 33.3788 3.72974 33.0961 3.42888C32.8305 3.15381 32.5649 2.88733 32.2907 2.62086C31.9651 2.30281 31.6396 1.98476 31.3397 1.64951C30.6114 0.858681 29.6518 0.506245 28.6065 0.652377C27.5013 0.798509 26.4989 1.50338 25.9933 2.49192C25.8648 2.73261 25.702 2.98189 25.4364 3.01627C25.1366 3.05925 24.9224 2.81857 24.7681 2.64665C24.4083 2.23404 24.0227 1.84722 23.6372 1.4518L23.4144 1.22831C22.5833 0.377305 21.5809 -0.0438981 20.5099 -0.000918111C19.3704 0.0420618 18.2566 0.626589 17.4512 1.59794C16.0118 3.32573 16.106 5.3114 17.6911 6.91885C19.7045 8.93891 21.7094 10.959 23.7314 12.9532C23.8771 13.0994 24.0399 13.2971 24.0399 13.555C24.0399 13.8128 23.8771 14.0019 23.7229 14.1567C21.4781 16.3916 19.2419 18.6352 17.0057 20.8873C16.5944 21.2999 16.1832 21.7125 15.7805 22.1252V24.0335C16.1917 23.6295 16.5944 23.2254 17.0057 22.8214C19.5675 20.2598 22.1121 17.6982 24.6568 15.128C24.8024 14.9819 25.008 14.81 25.2651 14.81C25.5221 14.81 25.7192 14.9733 25.8905 15.1452C26.8244 16.0908 27.7583 17.0277 28.6922 17.9733L30.5943 19.8816V19.3229C30.5943 19.1338 30.6029 18.936 30.62 18.7469C30.6371 18.5234 30.6885 18.3257 30.7742 18.1538C30.4743 17.853 30.1745 17.5521 29.8746 17.2512C26.1733 13.5378 22.4891 9.84149 18.8049 6.14521C18.6421 5.98189 18.4879 5.80137 18.3337 5.62945C18.0081 5.24264 17.8367 4.81284 17.8367 4.37444C17.8367 4.33146 17.8453 4.29708 17.8453 4.2541C17.8367 3.11083 18.565 2.02774 19.6446 1.57215C20.7241 1.11656 21.5723 1.31427 22.4805 2.23404C27.1757 6.93604 31.8623 11.6381 36.5575 16.3487C37.5171 17.32 37.697 18.2913 37.1144 19.4088C36.8745 19.873 36.5232 20.2598 36.1034 20.5349C35.7436 20.7756 35.3323 20.9303 34.9039 20.9905V22.3916C35.0067 22.3744 35.1096 22.3658 35.2124 22.3487C36.0092 22.2111 36.7546 21.8157 37.3715 21.2398C37.817 20.8272 38.1854 20.32 38.451 19.7441C39.1279 18.2742 38.8623 16.8128 37.7227 15.6352ZM34.7411 11.9131C34.287 11.9131 33.8415 11.6982 33.4045 11.2856C33.0704 10.9676 32.7448 10.6409 32.4192 10.3057L30.7999 8.68103C29.6947 7.58074 28.598 6.48905 27.5184 5.37157C27.1157 4.95897 26.9101 4.49478 26.9187 4.01341C26.9187 3.50625 27.1757 3.01627 27.6298 2.57788C28.5037 1.74407 29.489 1.74407 30.3287 2.58647C31.6396 3.89306 32.9505 5.20825 34.2528 6.51484L36.2148 8.48332C36.5918 8.86155 36.7974 9.27415 36.7803 9.61799C36.7803 10.6151 36.3605 11.2856 35.4694 11.7326C35.2209 11.853 34.981 11.9131 34.7411 11.9131ZM21.7694 32.6982C21.5809 32.4146 21.3324 32.1653 21.0583 31.8816L20.9297 31.7613C19.7131 30.532 18.4879 29.3028 17.2627 28.0736C16.7743 27.575 16.2774 27.085 15.7805 26.5951V28.469C16.1746 28.8644 16.5687 29.2598 16.9628 29.6552L20.1501 32.853C20.5442 33.2484 20.9897 33.7899 20.9897 34.5464C20.9897 34.5979 20.9812 34.6409 20.9812 34.6925C21.0069 35.1223 20.8869 35.5607 20.6384 35.9819C20.1329 36.8329 19.4047 37.3573 18.5822 37.4604C18.4793 37.4604 18.3851 37.4776 18.2823 37.4776C17.7596 37.4776 17.2456 37.3057 16.7743 36.9876C16.5944 36.8673 16.423 36.7211 16.2603 36.5578C16.0889 36.3859 15.9261 36.2226 15.7633 36.0507C15.7205 36.4289 15.592 36.8415 15.215 37.1681C15.1807 37.2111 15.1379 37.2455 15.095 37.2799C15.2236 37.4088 15.3435 37.5378 15.472 37.6753C15.6434 37.8558 15.8147 38.0191 16.0032 38.1567C16.6372 38.6381 17.3655 38.8873 18.1452 38.8959C19.2333 38.8959 20.3386 38.3802 21.1611 37.4948C22.5491 35.9991 22.7718 34.2025 21.7694 32.6982ZM10.2628 30.5148V30.7985C10.2628 31.3143 10.1085 31.7097 9.80866 31.9848C10.297 32.4661 10.7768 32.9561 11.2566 33.4375C11.3337 33.5148 11.4109 33.6008 11.4708 33.6782C11.4708 33.0335 11.4708 32.3888 11.4794 31.7441C11.0681 31.3315 10.6655 30.9274 10.2628 30.5148ZM11.5051 35.9303C11.2309 36.3257 10.8454 36.618 10.3913 36.7641C10.1942 36.8243 9.98002 36.8587 9.76582 36.8587C9.74012 36.8673 9.71442 36.8673 9.68015 36.8673C9.26889 36.8673 8.85763 36.661 8.44637 36.2484L5.83318 33.6266C4.77076 32.5607 3.69978 31.4948 2.64593 30.4203C1.79772 29.5779 1.79772 28.5206 2.6288 27.661C3.05719 27.214 3.55413 26.9733 4.05106 26.9733C4.2824 26.9733 4.5223 27.0335 4.7622 27.128C5.0021 27.2398 5.242 27.4031 5.45619 27.618C6.00453 28.1681 6.55288 28.7183 7.10122 29.2684V27.3343L6.03024 26.2512L2.1747 22.383C1.90053 22.108 1.60922 21.7641 1.47214 21.3085C1.14656 20.2426 1.73774 18.9275 2.843 18.2398C3.90541 17.5779 5.01923 17.6982 5.89315 18.5578C6.7071 19.3573 7.51248 20.1739 8.32643 20.9905L11.4965 24.171V22.2369C11.0853 21.8243 10.6826 21.4117 10.2713 21.0077C9.6116 20.3372 8.94331 19.6753 8.28359 19.0134L7.04125 17.767C5.73893 16.4604 4.2824 16.1166 2.80872 16.7527C1.87483 17.1567 1.1894 17.6982 0.735302 18.4203C0.281206 19.1423 0.0413056 20.0535 -0.0015337 21.214C-0.0272373 21.4977 0.14412 22.065 1.09515 23.2168C1.54068 23.7498 2.06332 24.2828 2.70591 24.8587C2.843 24.979 3.0829 25.1853 3.04862 25.4776C3.02292 25.7355 2.80016 25.8988 2.58596 26.0191C1.1894 26.8014 0.563945 27.9017 0.666759 29.3888C0.718166 30.1022 1.01804 30.7211 1.61779 31.3401C2.23468 31.9762 2.85156 32.6037 3.48558 33.214C3.66551 33.3859 4.08533 33.7899 3.57983 34.383C3.38277 34.6151 3.21998 34.9676 3.5627 35.3114C3.76832 35.5177 4.03393 35.6724 4.49659 35.3114C5.06207 34.873 5.43906 35.1395 5.70466 35.4231C5.97026 35.7068 6.24443 35.9733 6.51861 36.2484C6.83562 36.5578 7.15263 36.8759 7.46107 37.2025C8.18934 37.9848 9.14037 38.3372 10.1514 38.2168C10.4684 38.1739 10.7768 38.0879 11.0767 37.959C11.4708 37.787 11.8392 37.5464 12.1477 37.2541C11.7878 36.9274 11.5651 36.4633 11.5051 35.9217V35.9303Z" fill="black"/>
<path d="M11.4725 35.536V33.6793C11.4725 33.0346 11.4725 32.3899 11.4811 31.7452C11.4811 30.2667 11.4811 28.7882 11.4896 27.301V24.1721L8.55085 21.2151C7.7369 21.2151 7.05147 21.5503 6.46886 22.2208C6.07474 22.6764 5.88624 23.2265 5.87768 23.9486C5.86054 24.7738 5.86054 25.4529 5.87768 26.0976L6.0319 26.2523L7.10288 27.3354V24.0088C7.10288 23.0632 7.69406 22.4615 8.6451 22.4529C9.1506 22.4443 9.55329 22.5904 9.83603 22.8655C10.1188 23.1406 10.2644 23.536 10.2644 24.0174C10.2644 26.1836 10.2644 28.3498 10.2644 30.5159V30.7996C10.2644 31.3154 10.1102 31.7108 9.81032 31.9859C9.69894 32.0804 9.56186 32.1664 9.39907 32.2351C9.16773 32.3297 8.9364 32.3813 8.70507 32.3813C8.25954 32.3813 7.82258 32.2094 7.50557 31.8827C7.14572 31.5733 7.10288 31.1091 7.10288 30.791V29.2695C6.55454 28.7194 6.00619 28.1692 5.45785 27.6191C5.24366 27.4042 5.00376 27.2409 4.76386 27.1291C4.72102 27.2065 4.70388 27.2924 4.70388 27.3956C4.70388 27.7566 4.87524 27.9457 5.28649 27.9973C5.8177 28.0661 5.88624 28.4013 5.87768 28.7108C5.86911 29.0374 5.86911 29.3555 5.87768 29.6735C5.87768 30.0432 5.87768 30.4128 5.86911 30.7738C5.83484 31.6764 6.19469 32.4586 6.87155 32.9744C7.59982 33.5503 8.63653 33.748 9.50188 33.4902C9.79319 33.4042 9.96455 33.3526 10.1188 33.4644C10.2644 33.5761 10.2644 33.7566 10.2644 34.0833V34.5733C10.2644 34.9601 10.2644 35.3383 10.2644 35.7251C10.2473 36.0861 10.2901 36.4386 10.3929 36.7652C10.847 36.6191 11.2326 36.3268 11.5068 35.9314C11.4811 35.8025 11.4725 35.6735 11.4725 35.536ZM41.6313 27.1119C41.5371 26.9486 41.34 26.8369 41.1087 26.8197C40.5432 26.7767 40.4747 26.4414 40.4833 26.089C40.4918 25.771 40.4918 25.4529 40.4833 25.1349C40.4833 24.7652 40.4833 24.3956 40.4918 24.026C40.5347 23.132 40.1662 22.3412 39.4637 21.8082C38.8725 21.3526 38.11 21.1463 37.3731 21.2409C37.1846 21.2409 37.0047 21.2924 36.8248 21.344C36.6192 21.4128 36.405 21.4558 36.2422 21.3354C36.0708 21.1979 36.0879 20.9486 36.0965 20.7767C36.1051 20.6993 36.1051 20.6134 36.1051 20.536C36.1222 20.1578 36.1222 19.7881 36.1222 19.4099V19.152C36.1308 18.1549 35.7881 17.3125 35.1369 16.7022C34.4343 16.0575 33.4319 15.7394 32.3952 15.834C31.2385 15.9371 30.3732 16.4357 29.8762 17.2523C29.6278 17.6563 29.465 18.1463 29.4221 18.7051C29.405 18.8426 29.3964 18.9801 29.3964 19.1263C29.3964 21.473 29.3964 23.8197 29.405 26.1578C29.405 26.3211 29.3879 26.5188 29.2594 26.6563C29.1223 26.7939 28.9338 26.8197 28.7539 26.8025C25.0611 26.7939 21.3684 26.7939 17.6756 26.8025H17.6671C17.5043 26.8025 17.2986 26.7853 17.1615 26.6477C17.0159 26.5016 16.9988 26.2953 16.9988 26.1234C17.0073 25.0231 17.0073 23.9228 17.0073 22.8225V19.2122C17.0073 17.6821 16.3476 16.6076 15.0967 16.1091C14.5741 15.9028 14.0771 15.791 13.5973 15.791C12.6463 15.791 11.7552 16.2122 10.8213 17.0718C10.6328 17.2265 10.4015 17.6649 10.2816 18.92C10.2301 19.4873 10.2216 20.1062 10.2644 20.8111C10.2644 20.8798 10.2644 20.9486 10.2644 21.0088C10.2644 21.1377 10.213 21.2495 10.1188 21.3354C9.97311 21.4558 9.75892 21.4214 9.57899 21.3698C9.21057 21.2667 8.86786 21.2151 8.54228 21.2151C7.72833 21.2151 7.04291 21.5503 6.46029 22.2208C6.06617 22.6764 5.87768 23.2265 5.86911 23.9486C5.85197 24.7738 5.85197 25.4529 5.86911 26.0976V26.132C5.86911 26.45 5.80913 26.7767 5.28649 26.8197C5.02089 26.8369 4.8324 26.9486 4.75529 27.1291C4.71245 27.2065 4.69531 27.2924 4.69531 27.3956C4.69531 27.7566 4.86667 27.9457 5.27793 27.9973C5.80913 28.0661 5.87768 28.4013 5.86911 28.7108C5.86054 29.0374 5.86054 29.3555 5.86911 29.6735C5.86911 30.0432 5.86911 30.4128 5.86054 30.7738C5.82627 31.6764 6.18612 32.4586 6.86298 32.9744C7.59125 33.5503 8.62796 33.748 9.49331 33.4902C9.78462 33.4042 9.95598 33.3526 10.1102 33.4644C10.2559 33.5761 10.2559 33.7566 10.2559 34.0833V34.5733C10.2559 34.9601 10.2559 35.3383 10.2559 35.7251C10.2387 36.0861 10.2816 36.4386 10.3844 36.7652C10.5043 37.2208 10.7357 37.6248 11.0698 37.9687C11.0869 37.9945 11.1041 38.0116 11.1212 38.0288C11.7638 38.6735 12.7148 39.0174 13.7173 38.9916C14.6512 38.9572 15.4308 38.6649 15.9963 38.1578C16.3476 37.8483 16.6132 37.4529 16.7674 36.9887C16.8274 36.8426 16.8702 36.6793 16.9045 36.5159C16.9559 36.2409 16.9645 35.9486 16.9645 35.6134V35.3641C16.9645 33.4644 16.9731 31.5561 16.9645 29.6563C16.9645 29.3211 16.9645 28.9945 16.9645 28.6592C16.9645 28.5045 16.9816 28.3068 17.1187 28.1692C17.1615 28.1263 17.213 28.0919 17.2644 28.0747C17.3757 28.0317 17.4957 28.0231 17.6156 28.0145C21.3255 28.0317 25.0354 28.0317 28.7367 28.0145H28.7539C28.9081 28.0145 29.1051 28.0317 29.2422 28.1692C29.3793 28.3068 29.3964 28.5045 29.3964 28.7022C29.3964 29.8111 29.3964 30.9114 29.3964 32.0202C29.3964 33.2581 29.3964 34.4959 29.3879 35.7423C29.3793 36.8426 29.8334 37.7796 30.6731 38.3727C31.6241 39.0432 32.9435 39.1893 34.1173 38.7509C35.3854 38.2867 36.0879 37.2638 36.1051 35.8884C36.1136 35.2351 36.1136 34.5818 36.1051 33.92C36.0965 33.748 36.1136 33.5761 36.2507 33.473C36.3964 33.3612 36.5849 33.3956 36.7477 33.4472C37.9729 33.7996 39.0353 33.5245 39.8921 32.622C40.2948 32.1836 40.4918 31.642 40.5004 30.9114V30.7738C40.5004 30.0775 40.509 29.3813 40.4918 28.685C40.4833 28.4099 40.5432 28.0403 41.0916 28.0059C41.3657 27.9887 41.5542 27.8598 41.6571 27.6449C41.7427 27.4558 41.7342 27.2667 41.6399 27.1119H41.6313ZM9.39907 32.2351C9.16773 32.3297 8.9364 32.3813 8.70507 32.3813C8.25954 32.3813 7.82258 32.2094 7.50557 31.8827C7.14572 31.5733 7.10288 31.1091 7.10288 30.791V24.0088C7.10288 23.0632 7.69406 22.4615 8.6451 22.4529C9.1506 22.4443 9.55329 22.5904 9.83603 22.8655C10.1188 23.1406 10.2644 23.536 10.2644 24.0174C10.2644 26.1836 10.2644 28.3498 10.2644 30.5159V30.7996C10.2644 31.3154 10.1102 31.7108 9.81032 31.9859C9.69894 32.0804 9.56186 32.1664 9.39907 32.2351ZM15.7821 35.6563C15.7821 35.7767 15.7821 35.9142 15.765 36.0518C15.7221 36.43 15.5936 36.8426 15.2166 37.1692C15.1824 37.2122 15.1395 37.2466 15.0967 37.281C14.8739 37.4873 14.6083 37.6334 14.2913 37.7108C14.0428 37.771 13.8115 37.8053 13.5802 37.8053C13.0918 37.8053 12.6377 37.6592 12.2779 37.3755C12.235 37.3412 12.1922 37.3068 12.1493 37.2638C11.7895 36.9371 11.5667 36.473 11.5068 35.9314C11.4811 35.8025 11.4725 35.6735 11.4725 35.536V33.6793C11.4725 33.0346 11.4725 32.3899 11.4811 31.7452C11.4811 30.2667 11.4811 28.7882 11.4896 27.301V24.1721L11.4982 19.0661C11.4982 18.748 11.5239 18.387 11.7038 18.0432C12.1236 17.2609 13.2118 16.8483 14.2228 17.089C15.1995 17.3211 15.7736 18.026 15.7821 19.0059V35.6563ZM34.9056 35.622C34.9056 36.7222 34.4515 37.3755 33.4919 37.685C33.252 37.7624 33.0035 37.7967 32.7636 37.7967C32.0353 37.7967 31.3328 37.4701 30.913 36.9028C30.5959 36.473 30.5959 35.9658 30.5959 35.5274C30.5874 30.2924 30.5874 25.0833 30.5959 19.8827V19.324C30.5959 19.1349 30.6045 18.9371 30.6217 18.748C30.6388 18.5245 30.6902 18.3268 30.7759 18.1549C30.853 17.9744 30.9729 17.8197 31.11 17.6993C31.7612 17.0374 32.7893 16.8397 33.6718 17.2008C34.5372 17.5532 34.9056 18.1549 34.9056 19.195V35.622ZM39.2666 28.5561V30.8512C39.2666 31.2724 39.1552 31.6162 38.9582 31.8053C38.5726 32.1836 38.1614 32.3727 37.6987 32.3727C37.4845 32.3727 37.2617 32.3383 37.0133 32.2523C36.4307 32.0546 36.1308 31.5818 36.1051 30.834C36.0965 30.4472 36.0965 30.0518 36.1051 29.6563V27.8598C36.0965 26.5618 36.0965 25.2638 36.1136 23.9572C36.1136 23.5016 36.2679 23.1234 36.542 22.8569C36.8248 22.5818 37.236 22.4271 37.7501 22.4529C38.7097 22.4701 39.2666 23.0288 39.2666 23.983C39.2752 25.5045 39.2666 27.0346 39.2666 28.5561ZM11.4725 35.536V33.6793C11.4725 33.0346 11.4725 32.3899 11.4811 31.7452C11.4811 30.2667 11.4811 28.7882 11.4896 27.301V24.1721L8.55085 21.2151C7.7369 21.2151 7.05147 21.5503 6.46886 22.2208C6.07474 22.6764 5.88624 23.2265 5.87768 23.9486C5.86054 24.7738 5.86054 25.4529 5.87768 26.0976L6.0319 26.2523L7.10288 27.3354V24.0088C7.10288 23.0632 7.69406 22.4615 8.6451 22.4529C9.1506 22.4443 9.55329 22.5904 9.83603 22.8655C10.1188 23.1406 10.2644 23.536 10.2644 24.0174C10.2644 26.1836 10.2644 28.3498 10.2644 30.5159V30.7996C10.2644 31.3154 10.1102 31.7108 9.81032 31.9859C9.69894 32.0804 9.56186 32.1664 9.39907 32.2351C9.16773 32.3297 8.9364 32.3813 8.70507 32.3813C8.25954 32.3813 7.82258 32.2094 7.50557 31.8827C7.14572 31.5733 7.10288 31.1091 7.10288 30.791V29.2695C6.55454 28.7194 6.00619 28.1692 5.45785 27.6191C5.24366 27.4042 5.00376 27.2409 4.76386 27.1291C4.72102 27.2065 4.70388 27.2924 4.70388 27.3956C4.70388 27.7566 4.87524 27.9457 5.28649 27.9973C5.8177 28.0661 5.88624 28.4013 5.87768 28.7108C5.86911 29.0374 5.86911 29.3555 5.87768 29.6735C5.87768 30.0432 5.87768 30.4128 5.86911 30.7738C5.83484 31.6764 6.19469 32.4586 6.87155 32.9744C7.59982 33.5503 8.63653 33.748 9.50188 33.4902C9.79319 33.4042 9.96455 33.3526 10.1188 33.4644C10.2644 33.5761 10.2644 33.7566 10.2644 34.0833V34.5733C10.2644 34.9601 10.2644 35.3383 10.2644 35.7251C10.2473 36.0861 10.2901 36.4386 10.3929 36.7652C10.847 36.6191 11.2326 36.3268 11.5068 35.9314C11.4811 35.8025 11.4725 35.6735 11.4725 35.536Z" fill="black"/>
</g>
<defs>
<clipPath id="clip0_392_2014">
<rect width="41.7083" height="39" fill="white"/>
</clipPath>
</defs>
</svg>
