<svg width="114" height="24" viewBox="0 0 114 24" fill="none" xmlns="http://www.w3.org/2000/svg">
<path d="M32.375 23.7028V17.7995H34.4792C34.9366 17.7995 35.3161 17.8782 35.6178 18.0358C35.9214 18.1934 36.1481 18.4115 36.298 18.6901C36.4479 18.9669 36.5229 19.2868 36.5229 19.65C36.5229 20.0113 36.447 20.3293 36.2952 20.6041C36.1453 20.877 35.9185 21.0893 35.6149 21.2411C35.3132 21.3929 34.9337 21.4688 34.4763 21.4688H32.8823V20.7021H34.3956C34.6839 20.7021 34.9183 20.6608 35.0989 20.5782C35.2815 20.4955 35.415 20.3754 35.4996 20.2178C35.5841 20.0603 35.6264 19.871 35.6264 19.65C35.6264 19.4271 35.5832 19.234 35.4967 19.0706C35.4122 18.9073 35.2786 18.7824 35.096 18.6959C34.9154 18.6075 34.6781 18.5633 34.3841 18.5633H33.2657V23.7028H32.375ZM35.2892 21.0394L36.7477 23.7028H35.7331L34.3034 21.0394H35.2892Z" fill="black"/>
<path d="M41.2159 23.7028V17.7995H44.917V18.5662H42.1066V20.3649H44.7239V21.1287H42.1066V22.936H44.9516V23.7028H41.2159Z" fill="black"/>
<path d="M52.9357 19.3502C52.9049 19.0774 52.7781 18.866 52.5552 18.7161C52.3323 18.5643 52.0517 18.4884 51.7135 18.4884C51.4714 18.4884 51.2619 18.5268 51.0851 18.6037C50.9083 18.6786 50.7709 18.7824 50.6729 18.915C50.5769 19.0456 50.5288 19.1946 50.5288 19.3618C50.5288 19.502 50.5615 19.6231 50.6268 19.7249C50.6941 19.8268 50.7815 19.9123 50.8891 19.9815C50.9987 20.0487 51.1159 20.1054 51.2408 20.1516C51.3657 20.1958 51.4858 20.2323 51.6011 20.2611L52.1776 20.411C52.3659 20.4571 52.559 20.5195 52.757 20.5983C52.9549 20.6771 53.1384 20.7809 53.3075 20.9096C53.4766 21.0384 53.613 21.1979 53.7168 21.3881C53.8225 21.5784 53.8754 21.8061 53.8754 22.0713C53.8754 22.4056 53.7889 22.7025 53.6159 22.962C53.4449 23.2214 53.1961 23.426 52.8694 23.5759C52.5446 23.7258 52.1516 23.8008 51.6904 23.8008C51.2485 23.8008 50.8661 23.7306 50.5432 23.5903C50.2204 23.4501 49.9677 23.2512 49.7851 22.9937C49.6026 22.7342 49.5017 22.4268 49.4825 22.0713H50.376C50.3933 22.2846 50.4625 22.4623 50.5836 22.6045C50.7066 22.7448 50.8632 22.8495 51.0534 22.9187C51.2456 22.986 51.456 23.0196 51.6847 23.0196C51.9364 23.0196 52.1603 22.9802 52.3563 22.9014C52.5542 22.8207 52.7099 22.7093 52.8233 22.5671C52.9366 22.4229 52.9933 22.2548 52.9933 22.0626C52.9933 21.8878 52.9434 21.7446 52.8434 21.6331C52.7454 21.5217 52.6119 21.4294 52.4428 21.3564C52.2756 21.2834 52.0863 21.219 51.8749 21.1633L51.1774 20.9731C50.7046 20.8443 50.3299 20.655 50.0532 20.4052C49.7784 20.1554 49.641 19.8249 49.641 19.4136C49.641 19.0735 49.7332 18.7766 49.9177 18.523C50.1022 18.2693 50.352 18.0723 50.6672 17.9321C50.9823 17.7899 51.3378 17.7188 51.7337 17.7188C52.1334 17.7188 52.486 17.7889 52.7915 17.9292C53.099 18.0695 53.3411 18.2626 53.5179 18.5085C53.6947 18.7526 53.787 19.0332 53.7946 19.3502H52.9357Z" fill="black"/>
<path d="M63.6768 20.7511C63.6768 21.3814 63.5615 21.9233 63.3309 22.3768C63.1003 22.8284 62.7842 23.1762 62.3826 23.4203C61.9829 23.6624 61.5284 23.7835 61.0192 23.7835C60.508 23.7835 60.0517 23.6624 59.65 23.4203C59.2503 23.1762 58.9352 22.8274 58.7046 22.3739C58.474 21.9204 58.3587 21.3795 58.3587 20.7511C58.3587 20.1208 58.474 19.5799 58.7046 19.1283C58.9352 18.6748 59.2503 18.327 59.65 18.0848C60.0517 17.8408 60.508 17.7188 61.0192 17.7188C61.5284 17.7188 61.9829 17.8408 62.3826 18.0848C62.7842 18.327 63.1003 18.6748 63.3309 19.1283C63.5615 19.5799 63.6768 20.1208 63.6768 20.7511ZM62.7948 20.7511C62.7948 20.2707 62.717 19.8662 62.5613 19.5376C62.4076 19.2071 62.1962 18.9573 61.9272 18.7881C61.6601 18.6171 61.3574 18.5316 61.0192 18.5316C60.6791 18.5316 60.3755 18.6171 60.1083 18.7881C59.8412 18.9573 59.6299 19.2071 59.4742 19.5376C59.3205 19.8662 59.2436 20.2707 59.2436 20.7511C59.2436 21.2315 59.3205 21.637 59.4742 21.9675C59.6299 22.2961 59.8412 22.5459 60.1083 22.7169C60.3755 22.8861 60.6791 22.9706 61.0192 22.9706C61.3574 22.9706 61.6601 22.8861 61.9272 22.7169C62.1962 22.5459 62.4076 22.2961 62.5613 21.9675C62.717 21.637 62.7948 21.2315 62.7948 20.7511Z" fill="black"/>
<path d="M68.3965 23.7028V17.7995H70.5007C70.9581 17.7995 71.3376 17.8782 71.6393 18.0358C71.9429 18.1934 72.1697 18.4115 72.3196 18.6901C72.4695 18.9669 72.5444 19.2868 72.5444 19.65C72.5444 20.0113 72.4685 20.3293 72.3167 20.6041C72.1668 20.877 71.94 21.0893 71.6364 21.2411C71.3347 21.3929 70.9552 21.4688 70.4979 21.4688H68.9038V20.7021H70.4171C70.7054 20.7021 70.9398 20.6608 71.1205 20.5782C71.303 20.4955 71.4366 20.3754 71.5211 20.2178C71.6057 20.0603 71.648 19.871 71.648 19.65C71.648 19.4271 71.6047 19.234 71.5182 19.0706C71.4337 18.9073 71.3001 18.7824 71.1176 18.6959C70.9369 18.6075 70.6996 18.5633 70.4056 18.5633H69.2872V23.7028H68.3965ZM71.3107 21.0394L72.7692 23.7028H71.7546L70.3249 21.0394H71.3107Z" fill="black"/>
<path d="M76.9463 18.5662V17.7995H81.515V18.5662H79.6731V23.7028H78.7853V18.5662H76.9463Z" fill="black"/>
<path d="M81.5469 13.1931V12.8809H82.4835C82.7176 12.8809 83.0298 12.2565 83.0298 12.2565C83.0298 12.2565 88.0249 1.01758 88.181 1.01758C88.3371 1.01758 93.2541 12.2565 93.2541 12.2565C93.2541 12.2565 93.5663 12.8809 94.2688 12.8809H94.9712V13.1931H90.0541V12.8809H90.3663C90.6005 12.8809 90.6005 12.2565 90.6005 12.2565C90.6005 12.2565 87.5566 4.92 87.4005 4.92C87.2444 4.92 84.5908 12.2565 84.5908 12.2565C84.5908 12.2565 84.4347 12.8809 85.2151 12.8809H85.9956V13.1931H81.5469Z" fill="black" stroke="black"/>
<path fill-rule="evenodd" clip-rule="evenodd" d="M65.625 1.33008V1.48616H66.6396C67.264 1.48616 67.264 2.18859 67.264 2.18859V12.1007C67.264 12.1007 67.1079 12.9593 66.7177 12.9593H65.8591V13.1934H71.4006V12.9593H70.3859C69.8396 12.9593 69.6835 12.1007 69.6835 12.1007V8.27636H71.0884C72.5254 11.1022 74.5225 12.9593 75.2249 13.1154C75.9274 13.2715 78.581 13.1934 78.581 13.1934V12.9593C78.581 12.9593 77.7225 13.1154 77.4103 12.8032C77.0981 12.491 72.8835 7.88612 73.1957 7.49587C73.1957 7.49587 74.8315 6.35254 75.2249 5.23248C75.472 4.52909 75.4591 4.06177 75.303 3.35933C75.1469 2.6569 73.7111 1.32884 72.8054 1.33008C71.8998 1.33133 65.625 1.33008 65.625 1.33008ZM69.8394 2.18812C69.8394 2.18812 69.7613 6.79423 69.8394 7.10517C69.9174 7.4161 71.8686 7.49541 72.493 6.87102C73.1174 6.24663 73.0394 4.76372 72.8833 4.21738C72.7272 3.67104 72.2589 2.33433 71.1662 2.17823C70.0735 2.02213 69.8394 2.18812 69.8394 2.18812Z" fill="black"/>
<path d="M65.625 1.48616H65.125V1.98616H65.625V1.48616ZM65.625 1.33008L65.6251 0.830079L65.125 0.82998V1.33008H65.625ZM67.264 12.1007L67.756 12.1902L67.764 12.1458V12.1007H67.264ZM65.8591 12.9593V12.4593H65.3591V12.9593H65.8591ZM65.8591 13.1934H65.3591V13.6934H65.8591V13.1934ZM71.4006 13.1934V13.6934H71.9006V13.1934H71.4006ZM71.4006 12.9593H71.9006V12.4593H71.4006V12.9593ZM69.6835 12.1007H69.1835V12.1458L69.1916 12.1902L69.6835 12.1007ZM69.6835 8.27636V7.77636H69.1835V8.27636H69.6835ZM71.0884 8.27636L71.5341 8.04972L71.3951 7.77636H71.0884V8.27636ZM75.2249 13.1154L75.3334 12.6273H75.3334L75.2249 13.1154ZM78.581 13.1934L78.5957 13.6932L79.081 13.6789V13.1934H78.581ZM78.581 12.9593H79.081V12.3602L78.4916 12.4673L78.581 12.9593ZM73.1957 7.49587L72.9093 7.08605L72.8502 7.1273L72.8053 7.18353L73.1957 7.49587ZM75.2249 5.23248L75.6967 5.39817V5.39817L75.2249 5.23248ZM75.303 3.35933L75.7911 3.25087V3.25087L75.303 3.35933ZM72.8054 1.33008L72.8048 0.830079H72.8048L72.8054 1.33008ZM69.8394 2.18812L69.5502 1.78022L69.3437 1.92659L69.3394 2.17965L69.8394 2.18812ZM72.8833 4.21738L73.364 4.08002V4.08002L72.8833 4.21738ZM71.1662 2.17823L71.2369 1.68326L71.1662 2.17823ZM66.125 1.48616V1.33008H65.125V1.48616H66.125ZM66.6396 0.986158H65.625V1.98616H66.6396V0.986158ZM67.264 2.18859C67.764 2.18859 67.764 2.18837 67.764 2.18815C67.764 2.18807 67.764 2.18785 67.764 2.18769C67.764 2.18738 67.764 2.18705 67.764 2.18672C67.764 2.18604 67.764 2.18532 67.764 2.18456C67.764 2.18303 67.764 2.18131 67.7639 2.17941C67.7639 2.17562 67.7638 2.1711 67.7636 2.1659C67.7633 2.15551 67.7628 2.14232 67.7618 2.12673C67.7598 2.0957 67.7561 2.05422 67.7489 2.00556C67.7348 1.9108 67.7058 1.77593 67.6429 1.63431C67.5797 1.49221 67.4747 1.32652 67.3006 1.19591C67.1203 1.06069 66.8962 0.986158 66.6396 0.986158V1.98616C66.6703 1.98616 66.6866 1.99038 66.6927 1.99236C66.6985 1.99422 66.7002 1.99564 66.7006 1.99591C66.7021 1.99702 66.7142 2.00693 66.7291 2.04045C66.7442 2.07443 66.7542 2.11517 66.7597 2.15211C66.7622 2.16931 66.7633 2.18271 66.7638 2.19009C66.764 2.1937 66.7641 2.19561 66.7641 2.19551C66.7641 2.19546 66.7641 2.19488 66.764 2.19375C66.764 2.19318 66.764 2.19247 66.764 2.19161C66.764 2.19118 66.764 2.19072 66.764 2.19022C66.764 2.18996 66.764 2.1897 66.764 2.18943C66.764 2.1893 66.764 2.18909 66.764 2.18902C66.764 2.18881 66.764 2.18859 67.264 2.18859ZM67.764 12.1007V2.18859H66.764V12.1007H67.764ZM66.7177 13.4593C67.0166 13.4593 67.2257 13.2913 67.3461 13.1519C67.4663 13.0128 67.5469 12.8491 67.6 12.7193C67.6553 12.5841 67.6935 12.4535 67.7177 12.3596C67.73 12.3118 67.7392 12.2715 67.7454 12.2424C67.7486 12.2278 67.751 12.2158 67.7527 12.207C67.7536 12.2026 67.7543 12.1989 67.7548 12.1961C67.7551 12.1947 67.7553 12.1935 67.7555 12.1925C67.7556 12.192 67.7557 12.1916 67.7558 12.1912C67.7558 12.191 67.7558 12.1908 67.7559 12.1906C67.7559 12.1906 67.7559 12.1904 67.7559 12.1904C67.7559 12.1903 67.756 12.1902 67.264 12.1007C66.7721 12.0113 66.7721 12.0112 66.7721 12.0111C66.7721 12.0111 66.7721 12.011 66.7722 12.0109C66.7722 12.0108 66.7722 12.0107 66.7722 12.0106C66.7722 12.0104 66.7723 12.0103 66.7723 12.0102C66.7723 12.01 66.7723 12.0101 66.7723 12.0103C66.7722 12.0107 66.772 12.0119 66.7716 12.0137C66.7709 12.0175 66.7695 12.024 66.7676 12.0329C66.7638 12.0507 66.7578 12.0775 66.7493 12.1102C66.7321 12.1772 66.7069 12.2612 66.6744 12.3407C66.6397 12.4255 66.6081 12.4765 66.5893 12.4983C66.5706 12.5199 66.6138 12.4593 66.7177 12.4593V13.4593ZM65.8591 13.4593H66.7177V12.4593H65.8591V13.4593ZM66.3591 13.1934V12.9593H65.3591V13.1934H66.3591ZM71.4006 12.6934H65.8591V13.6934H71.4006V12.6934ZM70.9006 12.9593V13.1934H71.9006V12.9593H70.9006ZM70.3859 13.4593H71.4006V12.4593H70.3859V13.4593ZM69.6835 12.1007C69.1916 12.1902 69.1916 12.1903 69.1916 12.1905C69.1916 12.1905 69.1917 12.1907 69.1917 12.1908C69.1917 12.191 69.1918 12.1913 69.1918 12.1915C69.1919 12.192 69.192 12.1926 69.1921 12.1932C69.1924 12.1944 69.1926 12.1959 69.193 12.1975C69.1936 12.2008 69.1944 12.2049 69.1954 12.2099C69.1974 12.2197 69.2001 12.2327 69.2037 12.2484C69.2109 12.2798 69.2214 12.3226 69.236 12.3732C69.2645 12.4725 69.3111 12.6106 69.3826 12.7536C69.508 13.0044 69.8102 13.4593 70.3859 13.4593V12.4593C70.3851 12.4593 70.3879 12.4595 70.3906 12.4606C70.3921 12.4612 70.3871 12.4595 70.376 12.4498C70.3503 12.4271 70.3144 12.3811 70.2771 12.3064C70.2413 12.2348 70.2147 12.1582 70.1969 12.0966C70.1883 12.0666 70.1824 12.0424 70.1789 12.0268C70.1771 12.0191 70.176 12.0136 70.1754 12.0109C70.1751 12.0095 70.175 12.0088 70.175 12.0089C70.175 12.0089 70.175 12.0091 70.1751 12.0095C70.1752 12.0097 70.1752 12.01 70.1753 12.0103C70.1753 12.0104 70.1753 12.0106 70.1753 12.0107C70.1754 12.0108 70.1754 12.011 70.1754 12.011C70.1754 12.0111 70.1754 12.0113 69.6835 12.1007ZM69.1835 8.27636V12.1007H70.1835V8.27636H69.1835ZM71.0884 7.77636H69.6835V8.77636H71.0884V7.77636ZM75.3334 12.6273C75.2736 12.614 75.0916 12.53 74.7915 12.2963C74.5098 12.0769 74.1698 11.7621 73.8008 11.3593C73.0633 10.5541 72.2311 9.42052 71.5341 8.04972L70.6427 8.503C71.3826 9.95804 72.2675 11.1659 73.0634 12.0347C73.4612 12.4689 73.8419 12.8243 74.1771 13.0853C74.494 13.332 74.8251 13.5387 75.1165 13.6035L75.3334 12.6273ZM78.581 13.1934C78.5663 12.6936 78.5663 12.6936 78.5663 12.6936C78.5663 12.6936 78.5663 12.6936 78.5663 12.6936C78.5662 12.6936 78.5661 12.6936 78.566 12.6936C78.5657 12.6936 78.5653 12.6937 78.5647 12.6937C78.5635 12.6937 78.5617 12.6938 78.5592 12.6938C78.5544 12.694 78.5471 12.6942 78.5375 12.6944C78.5182 12.695 78.4898 12.6957 78.4533 12.6966C78.3802 12.6984 78.2748 12.7008 78.146 12.7033C77.8883 12.7081 77.538 12.7129 77.1664 12.7129C76.7941 12.7129 76.4043 12.7081 76.0667 12.6939C75.7167 12.6791 75.4604 12.6555 75.3334 12.6273L75.1165 13.6035C75.3407 13.6533 75.6795 13.6784 76.0246 13.693C76.3821 13.708 76.7875 13.7129 77.1664 13.7129C77.5461 13.7129 77.903 13.708 78.1648 13.7031C78.2958 13.7006 78.4032 13.6982 78.478 13.6963C78.5154 13.6954 78.5447 13.6946 78.5647 13.6941C78.5746 13.6938 78.5823 13.6936 78.5876 13.6934C78.5902 13.6934 78.5922 13.6933 78.5935 13.6933C78.5942 13.6932 78.5947 13.6932 78.5951 13.6932C78.5953 13.6932 78.5954 13.6932 78.5955 13.6932C78.5956 13.6932 78.5956 13.6932 78.5957 13.6932C78.5957 13.6932 78.5957 13.6932 78.581 13.1934ZM78.081 12.9593V13.1934H79.081V12.9593H78.081ZM77.0567 13.1567C77.2271 13.3271 77.4408 13.4061 77.6104 13.446C77.7858 13.4872 77.9641 13.4983 78.1127 13.4983C78.2638 13.4983 78.4007 13.4868 78.4988 13.4755C78.5483 13.4699 78.5892 13.4642 78.6186 13.4597C78.6333 13.4575 78.6452 13.4555 78.654 13.4541C78.6584 13.4533 78.6619 13.4527 78.6647 13.4522C78.6661 13.452 78.6673 13.4518 78.6682 13.4516C78.6687 13.4515 78.6691 13.4514 78.6695 13.4514C78.6697 13.4513 78.6699 13.4513 78.67 13.4513C78.6701 13.4513 78.6702 13.4512 78.6703 13.4512C78.6704 13.4512 78.6705 13.4512 78.581 12.9593C78.4916 12.4673 78.4917 12.4673 78.4918 12.4673C78.4918 12.4673 78.4919 12.4673 78.4919 12.4673C78.4921 12.4672 78.4921 12.4672 78.4922 12.4672C78.4924 12.4672 78.4925 12.4672 78.4926 12.4672C78.4927 12.4671 78.4927 12.4671 78.4924 12.4672C78.4919 12.4673 78.4906 12.4675 78.4886 12.4678C78.4846 12.4685 78.4778 12.4696 78.4684 12.471C78.4497 12.4739 78.421 12.4779 78.3852 12.482C78.3126 12.4903 78.2153 12.4983 78.1127 12.4983C78.0077 12.4983 77.9129 12.4898 77.8395 12.4726C77.7603 12.4539 77.7496 12.4354 77.7639 12.4496L77.0567 13.1567ZM72.8053 7.18353C72.6272 7.40612 72.6841 7.66165 72.703 7.73751C72.731 7.84951 72.7815 7.96001 72.8316 8.05546C72.9346 8.25172 73.0917 8.48803 73.2737 8.73924C73.6415 9.24682 74.1589 9.88063 74.688 10.5027C75.7446 11.7453 76.8865 12.9864 77.0567 13.1567L77.7639 12.4496C77.6219 12.3077 76.5004 11.0904 75.4497 9.85488C74.9251 9.23793 74.4279 8.62785 74.0835 8.1525C73.9094 7.91225 73.7861 7.72234 73.7171 7.59086C73.6812 7.52244 73.6729 7.49369 73.6732 7.49521C73.6736 7.49646 73.6813 7.526 73.6786 7.57355C73.6757 7.62277 73.6596 7.71643 73.5861 7.80822L72.8053 7.18353ZM74.7532 5.06678C74.5998 5.50362 74.1731 5.99907 73.7224 6.41797C73.5062 6.61887 73.3009 6.78748 73.1495 6.9058C73.074 6.96479 73.0126 7.01085 72.9706 7.04172C72.9496 7.05714 72.9335 7.06873 72.9231 7.07622C72.9178 7.07997 72.914 7.08268 72.9117 7.08433C72.9105 7.08516 72.9097 7.08572 72.9093 7.08601C72.9091 7.08615 72.909 7.08623 72.909 7.08623C72.909 7.08624 72.909 7.08622 72.9091 7.08619C72.9091 7.08618 72.9091 7.08614 72.9091 7.08613C72.9092 7.08609 72.9093 7.08605 73.1957 7.49587C73.4821 7.9057 73.4822 7.90564 73.4823 7.90559C73.4823 7.90556 73.4824 7.9055 73.4825 7.90545C73.4826 7.90535 73.4828 7.90523 73.483 7.9051C73.4834 7.90483 73.4839 7.90449 73.4844 7.90408C73.4856 7.90326 73.4872 7.90216 73.4891 7.90079C73.493 7.89804 73.4984 7.8942 73.5052 7.8893C73.5189 7.87949 73.5384 7.86543 73.5629 7.8474C73.6119 7.81137 73.6813 7.75935 73.7654 7.69365C73.933 7.5626 74.1612 7.37537 74.4032 7.15043C74.8688 6.71765 75.4567 6.0814 75.6967 5.39817L74.7532 5.06678ZM74.8149 3.4678C74.8889 3.80058 74.9219 4.04769 74.9153 4.28164C74.9089 4.51173 74.8635 4.75265 74.7532 5.06678L75.6967 5.39817C75.8334 5.00891 75.9051 4.66448 75.915 4.30946C75.9247 3.95828 75.8732 3.62052 75.7911 3.25087L74.8149 3.4678ZM72.8061 1.83008C72.9205 1.82992 73.0981 1.8753 73.328 1.99295C73.5507 2.10692 73.7878 2.27092 74.0107 2.46113C74.2333 2.6511 74.4304 2.85769 74.5771 3.04945C74.7318 3.25185 74.7993 3.39755 74.8149 3.4678L75.7911 3.25087C75.7287 2.96991 75.5581 2.68618 75.3715 2.44205C75.1767 2.18727 74.929 1.93022 74.6599 1.70053C74.3911 1.47108 74.0897 1.25939 73.7836 1.10274C73.4847 0.94978 73.1432 0.829615 72.8048 0.830079L72.8061 1.83008ZM65.625 1.33008C65.6249 1.83008 65.6249 1.83008 65.625 1.83008C65.625 1.83008 65.6251 1.83008 65.6252 1.83008C65.6254 1.83008 65.6257 1.83008 65.626 1.83008C65.6268 1.83008 65.6279 1.83008 65.6295 1.83008C65.6325 1.83008 65.637 1.83008 65.6429 1.83008C65.6548 1.83008 65.6725 1.83009 65.6956 1.83009C65.7418 1.8301 65.8096 1.83011 65.8963 1.83013C66.0696 1.83016 66.3183 1.83021 66.6195 1.83025C67.2219 1.83035 68.0346 1.83047 68.8756 1.83055C70.5572 1.8307 72.3528 1.8307 72.8061 1.83008L72.8048 0.830079C72.3524 0.830702 70.5578 0.830702 68.8756 0.830546C68.0347 0.830468 67.2221 0.830352 66.6197 0.830254C66.3185 0.830206 66.0698 0.830162 65.8965 0.83013C65.8098 0.830114 65.742 0.830102 65.6958 0.830093C65.6727 0.830088 65.655 0.830085 65.6431 0.830083C65.6372 0.830081 65.6327 0.830081 65.6296 0.83008C65.6281 0.83008 65.627 0.830079 65.6262 0.830079C65.6259 0.830079 65.6256 0.830079 65.6254 0.830079C65.6253 0.830079 65.6252 0.830079 65.6252 0.830079C65.6251 0.830079 65.6251 0.830079 65.625 1.33008ZM70.3243 6.98343C70.3315 7.01193 70.3292 7.01711 70.3252 6.96224C70.3221 6.9206 70.3192 6.86239 70.3167 6.78749C70.3116 6.63834 70.3083 6.43804 70.3064 6.20186C70.3028 5.73032 70.3052 5.12855 70.3101 4.53414C70.315 3.94023 70.3223 3.35578 70.3284 2.91967C70.3314 2.70165 70.3341 2.52079 70.3361 2.39448C70.3371 2.33132 70.3379 2.2818 70.3385 2.2481C70.3387 2.23124 70.3389 2.21834 70.3391 2.20967C70.3392 2.20533 70.3392 2.20205 70.3392 2.19986C70.3393 2.19877 70.3393 2.19794 70.3393 2.1974C70.3393 2.19712 70.3393 2.19692 70.3393 2.19679C70.3393 2.19672 70.3393 2.19667 70.3393 2.19664C70.3393 2.19661 70.3393 2.19659 69.8394 2.18812C69.3394 2.17965 69.3394 2.17967 69.3394 2.17971C69.3394 2.17975 69.3394 2.17981 69.3394 2.17988C69.3394 2.18002 69.3394 2.18024 69.3394 2.18052C69.3394 2.18109 69.3394 2.18194 69.3394 2.18306C69.3394 2.1853 69.3393 2.18863 69.3392 2.19302C69.3391 2.20179 69.3389 2.2148 69.3386 2.23176C69.338 2.26567 69.3372 2.31542 69.3362 2.37882C69.3343 2.50561 69.3315 2.68704 69.3284 2.9057C69.3223 3.34295 69.315 3.92946 69.3101 4.52594C69.3052 5.12193 69.3028 5.72998 69.3065 6.20955C69.3083 6.44891 69.3117 6.65947 69.3173 6.82174C69.32 6.90254 69.3235 6.97517 69.3278 7.03517C69.3313 7.08194 69.3375 7.15954 69.3544 7.2269L70.3243 6.98343ZM72.1395 6.51747C72.071 6.58594 71.9271 6.66776 71.6922 6.73297C71.4667 6.79557 71.2025 6.83045 70.9445 6.83912C70.6851 6.84785 70.4549 6.82933 70.2987 6.79759C70.2181 6.78119 70.1798 6.76573 70.172 6.76187C70.135 6.74357 70.2772 6.79564 70.3243 6.98343L69.3544 7.2269C69.4211 7.49242 69.6413 7.61499 69.7284 7.65811C69.8447 7.71565 69.9765 7.75253 70.0995 7.77754C70.3507 7.82861 70.662 7.84919 70.9781 7.83856C71.2957 7.82788 71.6413 7.78495 71.9597 7.69652C72.2688 7.61071 72.6029 7.4683 72.8466 7.22457L72.1395 6.51747ZM72.4025 4.35474C72.4616 4.5616 72.5176 5.00845 72.4822 5.4773C72.4455 5.96465 72.32 6.3369 72.1395 6.51747L72.8466 7.22457C73.2904 6.78075 73.4381 6.09935 73.4794 5.55256C73.5221 4.98728 73.461 4.41949 73.364 4.08002L72.4025 4.35474ZM71.0955 2.67321C71.4384 2.72219 71.721 2.95984 71.9562 3.32317C72.1895 3.68351 72.3293 4.09866 72.4025 4.35474L73.364 4.08002C73.2811 3.78976 73.1088 3.26338 72.7957 2.77975C72.4845 2.29912 71.9867 1.79037 71.2369 1.68326L71.0955 2.67321ZM69.8394 2.18812C70.1285 2.59602 70.128 2.5964 70.1275 2.59677C70.1273 2.59689 70.1268 2.59726 70.1264 2.5975C70.1257 2.59799 70.1251 2.59847 70.1244 2.59895C70.123 2.59991 70.1216 2.60084 70.1203 2.60176C70.1176 2.60359 70.1149 2.60534 70.1124 2.60701C70.1072 2.61035 70.1023 2.61339 70.0977 2.61613C70.0885 2.62161 70.0804 2.62592 70.0737 2.62923C70.0604 2.63584 70.0527 2.63845 70.0524 2.63855C70.0522 2.63862 70.0801 2.62926 70.149 2.6215C70.2888 2.60574 70.5756 2.59894 71.0955 2.67321L71.2369 1.68326C70.6641 1.60143 70.2875 1.59957 70.0371 1.62778C69.9108 1.64201 69.8119 1.66439 69.7337 1.6907C69.6944 1.70392 69.6598 1.71828 69.6294 1.73336C69.6142 1.7409 69.6 1.74862 69.5868 1.75646C69.5803 1.76038 69.5739 1.76433 69.5678 1.76829C69.5647 1.77027 69.5618 1.77226 69.5588 1.77425C69.5574 1.77524 69.5559 1.77624 69.5545 1.77723C69.5538 1.77773 69.553 1.77823 69.5523 1.77873C69.552 1.77897 69.5514 1.77935 69.5513 1.77947C69.5507 1.77985 69.5502 1.78022 69.8394 2.18812Z" fill="black"/>
<path d="M47.8281 1.17367V1.01758H53.2135V1.17367H52.433C52.1208 1.17367 51.7305 2.03221 51.7305 2.03221V9.52485C51.7305 9.52485 51.9647 11.8663 53.8378 12.1004H55.711C57.4281 11.5541 57.4281 9.36875 57.4281 9.36875V1.87611C57.4281 1.87611 57.272 1.17367 56.8037 1.17367H55.7891V1.01758H60.55V1.17367H59.6134C59.3012 1.17367 59.0671 1.87611 59.0671 1.87611C59.0671 1.87611 58.989 8.90046 58.911 9.36875C58.8329 9.83704 58.2086 11.7102 57.1159 12.4126C56.0232 13.1151 55.3988 13.1151 55.3988 13.1151C55.3988 13.1151 53.2135 13.1931 52.9793 13.1151C52.7452 13.037 52.1208 13.1151 51.1842 12.4126C50.2476 11.7102 49.3891 10.4614 49.311 9.36875C49.233 8.27607 49.233 1.87611 49.233 1.87611C49.233 1.87611 49.0769 1.17367 48.6867 1.17367H47.8281Z" fill="black" stroke="black"/>
<path d="M1.93658 1.40617H1V1.32812H6.54143V1.40617H5.6829L5.05851 2.10861V6.47932H5.44876L9.50727 1.79642L9.19508 1.40617H8.72679V1.32812H13.1755V1.40617H12.0829L11.5365 1.64032L7.08777 6.08907C7.08777 6.08907 8.57069 8.18437 9.50727 9.5232C10.4438 10.862 11.0682 11.7866 12.8633 12.7232L14.1902 12.8793V13.1134C14.1902 13.1134 12.0064 13.4549 10.678 13.1134C9.42325 12.7909 8.02435 11.4744 7.41052 10.5378C6.79669 9.60125 5.44876 7.2598 5.44876 7.2598H5.05851V11.9427L5.6829 12.8793H6.77558V13.1134H1.1561V12.8793H1.93658L2.56097 11.9427V2.10861L1.93658 1.40617Z" fill="black"/>
<path d="M5.05851 7.2598V11.9427L5.6829 12.8793H6.77558V13.1134H1.1561V12.8793H1.93658L2.56097 11.9427V2.10861L1.93658 1.40617H1V1.32812H6.54143V1.40617H5.6829L5.05851 2.10861V6.47932M5.05851 7.2598H5.44876C5.44876 7.2598 6.79669 9.60125 7.41052 10.5378C8.02435 11.4744 9.42325 12.7909 10.678 13.1134C12.0064 13.4549 14.1902 13.1134 14.1902 13.1134V12.8793M5.05851 7.2598V6.47932M14.1902 12.8793C14.1902 12.8793 13.7621 12.8793 13.4877 12.8793C13.4877 12.8793 13.878 13.5037 12.8633 12.7232M14.1902 12.8793L12.8633 12.7232M12.8633 12.7232C11.0682 11.7866 10.4438 10.862 9.50727 9.5232C8.57069 8.18437 7.08777 6.08907 7.08777 6.08907L11.5365 1.64032L12.0829 1.40617H13.1755V1.32812H8.72679V1.40617H9.19508L9.50727 1.79642L5.44876 6.47932H5.05851" stroke="black"/>
<path d="M18.4844 1.32812V1.48422H19.1868C19.7331 1.48422 19.8112 2.10861 19.8112 2.10861V12.0988C19.8112 12.0988 19.5771 12.9573 19.3429 12.9573H18.4844V13.1134H26.9136V10.4598H26.8355C26.8355 10.4598 26.8122 10.8465 26.7575 11.0842C26.6365 11.6097 25.8209 12.0988 25.8209 12.0988C25.8209 12.0988 24.0346 12.6659 23.1673 12.0988C22.8426 11.8865 22.4648 11.3964 22.4648 11.3964V7.18175H25.1965C25.1965 7.18175 25.8142 7.39356 25.977 7.72809C26.1237 8.02955 26.1331 8.58662 26.1331 8.58662H26.2892V5.69883C26.2892 5.69883 26.1331 6.08907 25.8209 6.24517C25.5087 6.40127 22.4648 6.24517 22.4648 6.24517V2.26471H25.4307C25.4307 2.26471 26.0104 2.5991 26.1331 2.96714C26.2199 3.22738 26.2112 3.66958 26.2112 3.66958H26.4453V1.32812H18.4844Z" fill="black" stroke="black"/>
<path d="M32.921 1.41034C32.6869 1.41034 32.2186 1.09613 32.2186 1.09613L32.0625 1.01758V3.924H32.2186V2.90282C32.2186 2.90282 32.2186 2.35296 32.921 2.35296H35.9649V12.0934C35.9649 12.0934 35.9649 12.9575 35.5747 12.9575H34.482V13.1931H40.2576V12.9575H39.2429C38.6186 12.9575 38.6186 12.0934 38.6186 12.0934L38.5405 2.35296H41.8966C42.3649 2.35296 42.521 2.90282 42.521 2.90282V3.924H42.6771V1.09613C42.6771 1.09613 42.1307 1.41034 41.8966 1.41034H32.921Z" fill="black" stroke="black"/>
<path d="M99.3398 1.25172V1.01758H104.881V1.25172H104.023C103.476 1.25172 103.476 1.95416 103.476 1.95416V6.16877H108.706V1.95416C108.706 1.95416 108.628 1.25172 108.159 1.25172H107.145V1.01758H112.764V1.25172H111.828C111.203 1.25172 111.281 1.95416 111.281 1.95416V12.1004C111.281 12.1004 111.281 12.7248 111.984 12.7248H112.998V12.959H107.379V12.7248H108.159C108.628 12.7248 108.706 12.1004 108.706 12.1004V7.0273H103.476V12.1004C103.476 12.1004 103.476 12.7248 104.179 12.7248H105.193V12.959H99.3398V12.7248H100.354C100.745 12.7248 100.745 12.1004 100.745 12.1004L100.901 1.95416C100.901 1.95416 100.979 1.25172 100.354 1.25172H99.3398Z" fill="black" stroke="black"/>
</svg>
